/* XPM */
static char * Grass_xpm[] = {
"64 64 28 1",
" 	c #5AD167",
".	c #5AD067",
"+	c #55CB64",
"@	c #59CE67",
"#	c #62D46C",
"$	c #61D46C",
"%	c #5ACE67",
"&	c #59CF67",
"*	c #5AD066",
"=	c #55CB65",
"-	c #62D36C",
";	c #61D36B",
">	c #59CF68",
",	c #62D36B",
"'	c #54CB64",
")	c #54CA64",
"!	c #59CD66",
"~	c #55CC64",
"{	c #5AD166",
"]	c #5BD167",
"^	c #56CC65",
"/	c #5BD268",
"(	c #61D36C",
"_	c #56CC64",
":	c #59D167",
"<	c #56CB64",
"[	c #59D067",
"}	c #55CB63",
"    ....++++++++++++++++++++....@@@@@@@@@@@@####$$$$@@@@%%%%####",
"    ....++++++++++++++++++++....@@@@@@@@@@@@####$$$$@@@@%%%%####",
"    ....++++++++++++++++++++....@@@@@@@@@@@@####$$$$@@@@%%%%####",
"    ....++++++++++++++++++++....@@@@@@@@@@@@####$$$$@@@@%%%%####",
"####++++++++    ++++        &&&&@@@@@@@@################$$$$    ",
"####++++++++    ++++        &&&&@@@@@@@@################$$$$    ",
"####++++++++    ++++        &&&&@@@@@@@@################$$$$    ",
"####++++++++    ++++        &&&&@@@@@@@@################$$$$    ",
"####****====@@@@&&&&    ####----@@@@####################$$$$    ",
"####****====@@@@&&&&    ####----@@@@####################$$$$    ",
"####****====@@@@&&&&    ####----@@@@####################$$$$    ",
"####****====@@@@&&&&    ####----@@@@####################$$$$    ",
"    @@@@    %%%%####;;;;####$$$$@@@@########################$$$$",
"    @@@@    %%%%####;;;;####$$$$@@@@########################$$$$",
"    @@@@    %%%%####;;;;####$$$$@@@@########################$$$$",
"    @@@@    %%%%####;;;;####$$$$@@@@########################$$$$",
"@@@@@@@@&&&&%%%%@@@@@@@@>>>>;;;;++++@@@@############----$$$$    ",
"@@@@@@@@&&&&%%%%@@@@@@@@>>>>;;;;++++@@@@############----$$$$    ",
"@@@@@@@@&&&&%%%%@@@@@@@@>>>>;;;;++++@@@@############----$$$$    ",
"@@@@@@@@&&&&%%%%@@@@@@@@>>>>;;;;++++@@@@############----$$$$    ",
"@@@@@@@@############,,,,++++++++++++''''++++@@@@####    $$$$@@@@",
"@@@@@@@@############,,,,++++++++++++''''++++@@@@####    $$$$@@@@",
"@@@@@@@@############,,,,++++++++++++''''++++@@@@####    $$$$@@@@",
"@@@@@@@@############,,,,++++++++++++''''++++@@@@####    $$$$@@@@",
"@@@@####################----@@@@))))++++++++++++        @@@@!!!!",
"@@@@####################----@@@@))))++++++++++++        @@@@!!!!",
"@@@@####################----@@@@))))++++++++++++        @@@@!!!!",
"@@@@####################----@@@@))))++++++++++++        @@@@!!!!",
"    ########################....++++++++++++++++~~~~        ++++",
"    ########################....++++++++++++++++~~~~        ++++",
"    ########################....++++++++++++++++~~~~        ++++",
"    ########################....++++++++++++++++~~~~        ++++",
"{{{{]]]]################;;;;@@@@####    ++++++++++++~~~~@@@@++++",
"{{{{]]]]################;;;;@@@@####    ++++++++++++~~~~@@@@++++",
"{{{{]]]]################;;;;@@@@####    ++++++++++++~~~~@@@@++++",
"{{{{]]]]################;;;;@@@@####    ++++++++++++~~~~@@@@++++",
"++++    ########$$$$@@@@^^^^    ####////((((____        ....++++",
"++++    ########$$$$@@@@^^^^    ####////((((____        ....++++",
"++++    ########$$$$@@@@^^^^    ####////((((____        ....++++",
"++++    ########$$$$@@@@^^^^    ####////((((____        ....++++",
"++++++++]]]]########################((((    ####                ",
"++++++++]]]]########################((((    ####                ",
"++++++++]]]]########################((((    ####                ",
"++++++++]]]]########################((((    ####                ",
"++++@@@@########################$$$$@@@@%%%%####$$$$        {{{{",
"++++@@@@########################$$$$@@@@%%%%####$$$$        {{{{",
"++++@@@@########################$$$$@@@@%%%%####$$$$        {{{{",
"++++@@@@########################$$$$@@@@%%%%####$$$$        {{{{",
"@@@@####,,,,$$$$####----########;;;;@@@@@@@@    ]]]];;;;::::++++",
"@@@@####,,,,$$$$####----########;;;;@@@@@@@@    ]]]];;;;::::++++",
"@@@@####,,,,$$$$####----########;;;;@@@@@@@@    ]]]];;;;::::++++",
"@@@@####,,,,$$$$####----########;;;;@@@@@@@@    ]]]];;;;::::++++",
"~~~~++++<<<<@@@@    ]]]]####$$$$++++++++@@@@@@@@[[[[++++++++++++",
"~~~~++++<<<<@@@@    ]]]]####$$$$++++++++@@@@@@@@[[[[++++++++++++",
"~~~~++++<<<<@@@@    ]]]]####$$$$++++++++@@@@@@@@[[[[++++++++++++",
"~~~~++++<<<<@@@@    ]]]]####$$$$++++++++@@@@@@@@[[[[++++++++++++",
"    ....++++))))~~~~....@@@@@@@@@@@@@@@@@@@@@@@@@@@@++++++++====",
"    ....++++))))~~~~....@@@@@@@@@@@@@@@@@@@@@@@@@@@@++++++++====",
"    ....++++))))~~~~....@@@@@@@@@@@@@@@@@@@@@@@@@@@@++++++++====",
"    ....++++))))~~~~....@@@@@@@@@@@@@@@@@@@@@@@@@@@@++++++++====",
"        ....++++++++}}}}++++@@@@@@@@@@@@@@@@@@@@@@@@@@@@@@@@    ",
"        ....++++++++}}}}++++@@@@@@@@@@@@@@@@@@@@@@@@@@@@@@@@    ",
"        ....++++++++}}}}++++@@@@@@@@@@@@@@@@@@@@@@@@@@@@@@@@    ",
"        ....++++++++}}}}++++@@@@@@@@@@@@@@@@@@@@@@@@@@@@@@@@    "};
