/* XPM */
static char * Lugia_Frame02_xpm[] = {
"64 64 698 2",
"  	c #5AD167",
". 	c #5AD067",
"+ 	c #55CB64",
"@ 	c #59CE67",
"# 	c #62D46C",
"$ 	c #61D46C",
"% 	c #5ACE67",
"& 	c #59CF67",
"* 	c #5AD066",
"= 	c #55CB65",
"- 	c #62D36C",
"; 	c #61D36B",
"> 	c #62D46D",
", 	c #66CE71",
"' 	c #5BCE68",
") 	c #5FCA75",
"! 	c #395F5A",
"~ 	c #58C570",
"{ 	c #59CE68",
"] 	c #61CF72",
"^ 	c #386258",
"/ 	c #DCDFE9",
"( 	c #366056",
"_ 	c #58C86C",
": 	c #60CB74",
"< 	c #395C58",
"[ 	c #E3E5F2",
"} 	c #395E5A",
"| 	c #59C570",
"1 	c #59CF68",
"2 	c #61CD71",
"3 	c #386257",
"4 	c #DFE2EB",
"5 	c #ECECFC",
"6 	c #E0E2EC",
"7 	c #366057",
"8 	c #55C56B",
"9 	c #59C86D",
"0 	c #58C86D",
"a 	c #59C86C",
"b 	c #61CE71",
"c 	c #345953",
"d 	c #E6E8F2",
"e 	c #E7E7F0",
"f 	c #325953",
"g 	c #55C569",
"h 	c #5ACB6D",
"i 	c #59CB6D",
"j 	c #5ACB6C",
"k 	c #5AD168",
"l 	c #58C56F",
"m 	c #345F56",
"n 	c #325853",
"o 	c #376157",
"p 	c #60CA74",
"q 	c #385D58",
"r 	c #E5E7F1",
"s 	c #ECEBFC",
"t 	c #E4E6F0",
"u 	c #375C58",
"v 	c #55C36D",
"w 	c #366157",
"x 	c #335753",
"y 	c #355F56",
"z 	c #59C870",
"A 	c #69CF74",
"B 	c #366256",
"C 	c #A79EC6",
"D 	c #CBC1E8",
"E 	c #C6BEE1",
"F 	c #366156",
"G 	c #C7BFE2",
"H 	c #EAEAFB",
"I 	c #E9E9F9",
"J 	c #E9E9FA",
"K 	c #C8BFE2",
"L 	c #61CE72",
"M 	c #396358",
"N 	c #CAC0E8",
"O 	c #A89EC5",
"P 	c #386357",
"Q 	c #335853",
"R 	c #AAA0C9",
"S 	c #CFC4ED",
"T 	c #CAC0E7",
"U 	c #62D36B",
"V 	c #57CB65",
"W 	c #55C26E",
"X 	c #355955",
"Y 	c #E6E7F2",
"Z 	c #EAEAFA",
"` 	c #EBEBFB",
" .	c #E5E7F0",
"..	c #365B56",
"+.	c #54C36D",
"@.	c #54CB64",
"#.	c #CFC3ED",
"$.	c #AA9FC9",
"%.	c #375D56",
"&.	c #345A55",
"*.	c #AA9FC8",
"=.	c #CDC2EB",
"-.	c #C9C0E7",
";.	c #56C56B",
">.	c #2C4939",
",.	c #56C26C",
"'.	c #55C669",
").	c #325E55",
"!.	c #ABA1C8",
"~.	c #EAE9F9",
"{.	c #E9EAF9",
"].	c #E9E8F9",
"^.	c #335E54",
"/.	c #54C569",
"(.	c #54C16B",
"_.	c #2C4739",
":.	c #C9BFE7",
"<.	c #CCC1EA",
"[.	c #A99EC7",
"}.	c #355A55",
"|.	c #AFA3CD",
"1.	c #AAA0C8",
"2.	c #356055",
"3.	c #62CF73",
"4.	c #56C66B",
"5.	c #273E30",
"6.	c #2C4F3A",
"7.	c #56C46C",
"8.	c #E6E6F0",
"9.	c #EBEAFB",
"0.	c #E4E5F1",
"a.	c #395E59",
"b.	c #54C46B",
"c.	c #2A4F39",
"d.	c #284132",
"e.	c #60CE72",
"f.	c #AFA2CD",
"g.	c #A89DC7",
"h.	c #A99EC8",
"i.	c #304B52",
"j.	c #325753",
"k.	c #396357",
"l.	c #61CB74",
"m.	c #274236",
"n.	c #0B5C82",
"o.	c #2A433A",
"p.	c #E0E0E9",
"q.	c #EBEBFA",
"r.	c #EBECFB",
"s.	c #E1E2EB",
"t.	c #2A453A",
"u.	c #0B5C81",
"v.	c #284236",
"w.	c #56C569",
"x.	c #5BD168",
"y.	c #355B54",
"z.	c #314B53",
"A.	c #CCC0EA",
"B.	c #AEA2CC",
"C.	c #A89EC8",
"D.	c #A89DC6",
"E.	c #B0A3CE",
"F.	c #C8BEE5",
"G.	c #344C57",
"H.	c #C4BAE2",
"I.	c #CDC3E9",
"J.	c #DFE4EA",
"K.	c #396257",
"L.	c #61CE70",
"M.	c #294436",
"N.	c #085E88",
"O.	c #13628B",
"P.	c #DEE5F2",
"Q.	c #DDE3F1",
"R.	c #085E87",
"S.	c #283F34",
"T.	c #386358",
"U.	c #DEE2EB",
"V.	c #CDC2E9",
"W.	c #C4BAE1",
"X.	c #C8BEE6",
"Y.	c #A79CC7",
"Z.	c #335A54",
"`.	c #7F7FA1",
" +	c #C7BDE5",
".+	c #304853",
"++	c #ACA1CA",
"@+	c #D0C3ED",
"#+	c #E7E7F1",
"$+	c #63D46D",
"%+	c #61CA74",
"&+	c #2F4C3D",
"*+	c #61CB73",
"=+	c #62CE70",
"-+	c #2D4F3A",
";+	c #054F77",
">+	c #075F8A",
",+	c #1A658F",
"'+	c #E6E8F5",
")+	c #E4E7F6",
"!+	c #1B658E",
"~+	c #034F76",
"{+	c #2B4C38",
"]+	c #55C66A",
"^+	c #55C16C",
"/+	c #2D493D",
"(+	c #55C26C",
"_+	c #5ACC6D",
":+	c #335852",
"<+	c #E7E8F2",
"[+	c #CFC3EC",
"}+	c #ABA0C9",
"|+	c #314953",
"1+	c #7E7FA1",
"2+	c #345C55",
"3+	c #B1A5CE",
"4+	c #E3E4F2",
"5+	c #3A5F5A",
"6+	c #62CE72",
"7+	c #2F513C",
"8+	c #397BA1",
"9+	c #2E503E",
"0+	c #61CA72",
"a+	c #305955",
"b+	c #106089",
"c+	c #13628D",
"d+	c #DDE3F2",
"e+	c #DCE3F1",
"f+	c #12618C",
"g+	c #0E6089",
"h+	c #2F5755",
"i+	c #2B4E3D",
"j+	c #397CA1",
"k+	c #2B4C3B",
"l+	c #E4E4F2",
"m+	c #AA9EC8",
"n+	c #AEA1CC",
"o+	c #7E7EA0",
"p+	c #345A54",
"q+	c #7F80A2",
"r+	c #ADA1CB",
"s+	c #AA9FC7",
"t+	c #334B56",
"u+	c #A79DC5",
"v+	c #CEC3EC",
"w+	c #E0E4EC",
"x+	c #366257",
"y+	c #283F33",
"z+	c #0D618B",
"A+	c #0D5F85",
"B+	c #2F513B",
"C+	c #62CB74",
"D+	c #206E8C",
"E+	c #A59FC8",
"F+	c #10618C",
"G+	c #1A658E",
"H+	c #E5E7F5",
"I+	c #E3E7F5",
"J+	c #1B648E",
"K+	c #13618D",
"L+	c #A49FC8",
"M+	c #1D6D8B",
"N+	c #55C46B",
"O+	c #0C5F85",
"P+	c #0D6089",
"Q+	c #273F34",
"R+	c #DFE2EC",
"S+	c #CEC3EB",
"T+	c #A79CC5",
"U+	c #334B55",
"V+	c #7F80A1",
"W+	c #69D274",
"X+	c #8483A6",
"Y+	c #ADA2CB",
"Z+	c #A79DC7",
"`+	c #324A54",
" @	c #AB9FC9",
".@	c #E6E7F0",
"+@	c #385E58",
"@@	c #62CF70",
"#@	c #30513A",
"$@	c #2A454D",
"%@	c #2A4650",
"&@	c #2B474C",
"*@	c #335957",
"=@	c #15638C",
"-@	c #E1E4F5",
";@	c #15608A",
">@	c #14618B",
",@	c #EBEAFA",
"'@	c #E4E6F4",
")@	c #12608B",
"!@	c #15618A",
"~@	c #15648C",
"{@	c #325955",
"]@	c #2A454C",
"^@	c #2A464F",
"/@	c #2D4F39",
"(@	c #55CC64",
"_@	c #375A56",
":@	c #CEC2EB",
"<@	c #AB9FC8",
"[@	c #314A54",
"}@	c #365C56",
"|@	c #365D56",
"1@	c #A69CC5",
"2@	c #ACA0CA",
"3@	c #C7BEE3",
"4@	c #3C655C",
"5@	c #61CD74",
"6@	c #2A4435",
"7@	c #2D474E",
"8@	c #334C57",
"9@	c #C1BAE0",
"0@	c #364F5A",
"a@	c #E0E0EF",
"b@	c #100E0F",
"c@	c #145F88",
"d@	c #E4E7F7",
"e@	c #135F89",
"f@	c #0F0D10",
"g@	c #E1E0F0",
"h@	c #354F5A",
"i@	c #C1B9DF",
"j@	c #334C56",
"k@	c #2E484F",
"l@	c #274133",
"m@	c #55C36B",
"n@	c #55C66C",
"o@	c #55C66B",
"p@	c #5AC870",
"q@	c #3B635A",
"r@	c #C6BEE3",
"s@	c #A89EC6",
"t@	c #324B54",
"u@	c #ABA0CA",
"v@	c #8584A6",
"w@	c #A59CC4",
"x@	c #385D57",
"y@	c #6DD377",
"z@	c #79889A",
"A@	c #8484A6",
"B@	c #ADA0CB",
"C@	c #CBC0E9",
"D@	c #C6BDE2",
"E@	c #375A58",
"F@	c #386157",
"G@	c #355D55",
"H@	c #334C54",
"I@	c #E1E2ED",
"J@	c #8483A5",
"K@	c #A69BC2",
"L@	c #110F12",
"M@	c #125F88",
"N@	c #E4E8F6",
"O@	c #135E88",
"P@	c #120E11",
"Q@	c #A69AC2",
"R@	c #CCC1E9",
"S@	c #E1E2EC",
"T@	c #324E55",
"U@	c #335954",
"V@	c #365F57",
"W@	c #54C66B",
"X@	c #55C46D",
"Y@	c #365D57",
"Z@	c #CFC2EC",
"`@	c #CBBFE9",
" #	c #8383A5",
".#	c #304A54",
"+#	c #7A8999",
"@#	c #5AC871",
"##	c #8382A4",
"$#	c #C6BEE2",
"%#	c #375D58",
"&#	c #345954",
"*#	c #375C56",
"=#	c #355B55",
"-#	c #E5E6F1",
";#	c #E5E5F2",
">#	c #CEC4EC",
",#	c #CEC2EC",
"'#	c #CDC1EB",
")#	c #374D58",
"!#	c #9F97C0",
"~#	c #1B6792",
"{#	c #E2E5F4",
"]#	c #EAEAF9",
"^#	c #ECEBFB",
"/#	c #196792",
"(#	c #9F97BF",
"_#	c #364D58",
":#	c #E5E5F3",
"<#	c #E6E8F1",
"[#	c #345955",
"}#	c #325854",
"|#	c #375B57",
"1#	c #A99FC7",
"2#	c #305551",
"3#	c #54C26D",
"4#	c #5AD166",
"5#	c #59CB6B",
"6#	c #8583A6",
"7#	c #CABFE7",
"8#	c #C9BFE6",
"9#	c #E4E5F2",
"0#	c #E4E6F2",
"a#	c #E9E8FA",
"b#	c #CCC1EB",
"c#	c #CBC1EA",
"d#	c #C3BAE2",
"e#	c #384F5C",
"f#	c #C0B9E0",
"g#	c #D0C4ED",
"h#	c #E8E7F8",
"i#	c #38505B",
"j#	c #C3BBE1",
"k#	c #CABFE8",
"l#	c #CFC4EC",
"m#	c #EAE9FA",
"n#	c #E4E5F0",
"o#	c #C8BFE6",
"p#	c #B0A3CD",
"q#	c #8583A7",
"r#	c #5BC871",
"s#	c #7F88A0",
"t#	c #ADA1CC",
"u#	c #CDC3EA",
"v#	c #CDC2EA",
"w#	c #C5BBE1",
"x#	c #39505B",
"y#	c #C2BCE4",
"z#	c #CEC2EA",
"A#	c #D0C3EC",
"B#	c #384F5A",
"C#	c #C5BBE2",
"D#	c #CBC0EA",
"E#	c #7F86A0",
"F#	c #56C36F",
"G#	c #386158",
"H#	c #A89FC6",
"I#	c #CABFE9",
"J#	c #E6E6F7",
"K#	c #D0C2EB",
"L#	c #C4BDE5",
"M#	c #0E8DB0",
"N#	c #C1BEE7",
"O#	c #CAC0E9",
"P#	c #C1BEE6",
"Q#	c #0F8DAF",
"R#	c #C5BCE4",
"S#	c #D1C2EB",
"T#	c #CDC3EB",
"U#	c #E5E5F5",
"V#	c #8081A2",
"W#	c #A89FC5",
"X#	c #59C86E",
"Y#	c #39635A",
"Z#	c #354D57",
"`#	c #E6E6F3",
" $	c #C8C1E9",
".$	c #CBC2EB",
"+$	c #C5BFE7",
"@$	c #108CAE",
"#$	c #068AAC",
"$$	c #118CAF",
"%$	c #C8C0EA",
"&$	c #E6E6F2",
"*$	c #334D55",
"=$	c #304852",
"-$	c #A79DC6",
";$	c #376058",
">$	c #376258",
",$	c #7F80A0",
"'$	c #AEA1CB",
")$	c #324A55",
"!$	c #8081A1",
"~$	c #E2E4F0",
"{$	c #EBE9F9",
"]$	c #C5C1E9",
"^$	c #13B1D3",
"/$	c #14B1D2",
"($	c #C7C1E9",
"_$	c #C8C0E8",
":$	c #C6C1E9",
"<$	c #13B1D2",
"[$	c #C5C1EA",
"}$	c #E4E5EF",
"|$	c #7E80A0",
"1$	c #376158",
"2$	c #336054",
"3$	c #325754",
"4$	c #7D7F9F",
"5$	c #CBC1E9",
"6$	c #ECEAFA",
"7$	c #E4E8F8",
"8$	c #15B2D3",
"9$	c #01B0D2",
"0$	c #01B1D2",
"a$	c #C6C1EA",
"b$	c #CEC1EB",
"c$	c #C6C0E9",
"d$	c #14B3D3",
"e$	c #ECE9FA",
"f$	c #7D7EA0",
"g$	c #345B54",
"h$	c #345F55",
"i$	c #59C76F",
"j$	c #5ACC6C",
"k$	c #356155",
"l$	c #335854",
"m$	c #ABA0C8",
"n$	c #2F4852",
"o$	c #324B56",
"p$	c #C5BCE3",
"q$	c #CEC1EA",
"r$	c #C5C1E8",
"s$	c #0AB1D2",
"t$	c #00B1D2",
"u$	c #0CB1D3",
"v$	c #0DB1D3",
"w$	c #0CB1D2",
"x$	c #CDC1EA",
"y$	c #C6BCE2",
"z$	c #8080A1",
"A$	c #5AC770",
"B$	c #59CA6D",
"C$	c #5BD068",
"D$	c #356255",
"E$	c #345853",
"F$	c #355B56",
"G$	c #345B55",
"H$	c #2E4751",
"I$	c #CCC0E9",
"J$	c #AAA1CA",
"K$	c #118BAD",
"L$	c #00B0D1",
"M$	c #128AAD",
"N$	c #ABA1CB",
"O$	c #C8BDE6",
"P$	c #2E4750",
"Q$	c #335955",
"R$	c #5BD167",
"S$	c #5BCB6D",
"T$	c #098AAC",
"U$	c #00AFD0",
"V$	c #00B2D3",
"W$	c #0B89AB",
"X$	c #61CF73",
"Y$	c #C8BFE8",
"Z$	c #0D89AB",
"`$	c #008AAC",
" %	c #00B1D1",
".%	c #0089AB",
"+%	c #0C8AAC",
"@%	c #C7BFE9",
"#%	c #365B55",
"$%	c #C9C0E9",
"%%	c #0089AC",
"&%	c #00B0D2",
"*%	c #138BAD",
"=%	c #C9C1EA",
"-%	c #A7A1CA",
";%	c #0A87A9",
">%	c #0088AA",
",%	c #0B88A9",
"'%	c #A8A1CB",
")%	c #C6BDE1",
"!%	c #AC9EC8",
"~%	c #2E4C56",
"{%	c #0385A6",
"]%	c #008AAD",
"^%	c #0285A6",
"/%	c #304B57",
"(%	c #AC9FC9",
"_%	c #375A57",
":%	c #A9A0C6",
"<%	c #7E7D9E",
"[%	c #2D4A55",
"}%	c #0188A9",
"|%	c #0288A9",
"1%	c #7E7E9E",
"2%	c #A99FC5",
"3%	c #376256",
"4%	c #3A6458",
"5%	c #7C7D9C",
"6%	c #2F4954",
"7%	c #2C4851",
"8%	c #2F4A54",
"9%	c #7C7C9D",
"0%	c #334A55",
"a%	c #AFA2CC",
"b%	c #A79EC5",
"c%	c #386159",
"d%	c #60CB72",
"e%	c #385D5A",
"f%	c #2E4851",
"g%	c #807FA1",
"h%	c #8080A2",
"i%	c #A79DC4",
"j%	c #375B58",
"k%	c #59C56F",
"l%	c #63CD74",
"m%	c #79849A",
"n%	c #8282A3",
"o%	c #8181A3",
"p%	c #8282A4",
"q%	c #8180A2",
"r%	c #8180A3",
"s%	c #334C55",
"t%	c #788299",
"u%	c #5AC96D",
"v%	c #59D167",
"w%	c #62CD72",
"x%	c #324B55",
"y%	c #A69CC4",
"z%	c #A69BC4",
"A%	c #355A56",
"B%	c #ACA1C9",
"C%	c #AEA2CB",
"D%	c #7E7FA0",
"E%	c #8382A6",
"F%	c #8281A3",
"G%	c #AEA2CD",
"H%	c #325651",
"I%	c #ADA2CC",
"J%	c #2F4952",
"K%	c #56CB64",
"L%	c #305750",
"M%	c #304953",
"N%	c #A49BC2",
"O%	c #2F4951",
"P%	c #A59DC3",
"Q%	c #A59CC3",
"R%	c #335F54",
"S%	c #59D067",
"T%	c #5BC86F",
"U%	c #2E4850",
"V%	c #2C464F",
"W%	c #A89EC7",
"X%	c #356056",
"Y%	c #2E544F",
"Z%	c #325D53",
"`%	c #58CB65",
" &	c #57C569",
".&	c #C6BDE4",
"+&	c #C9BFE8",
"@&	c #386058",
"#&	c #57C56B",
"$&	c #2B4C36",
"%&	c #273F33",
"&&	c #2B4D3A",
"*&	c #58C96D",
"=&	c #356156",
"-&	c #365C57",
";&	c #55C56A",
">&	c #0A5D82",
",&	c #0B608A",
"'&	c #186988",
")&	c #1A6B89",
"!&	c #355B58",
"~&	c #A99FC6",
"{&	c #ABA1C9",
"]&	c #355F55",
"^&	c #56C26B",
"/&	c #2B503E",
"(&	c #0B5E84",
"_&	c #2F4B57",
":&	c #A89FC8",
"<&	c #ADA1C9",
"[&	c #55C36C",
"}&	c #355958",
"|&	c #ADA1CA",
"1&	c #ABA0CC",
"2&	c #7F7EA1",
"3&	c #335A55",
"4&	c #59C96E",
"5&	c #55C36F",
"6&	c #39625B",
"7&	c #A79EC4",
"8&	c #ABA0C7",
"9&	c #345A57",
"0&	c #105E84",
"a&	c #284036",
"b&	c #55C76C",
"c&	c #A19ABF",
"d&	c #365A57",
"e&	c #346055",
"f&	c #55C46E",
"g&	c #294E38",
"h&	c #2A4C35",
"i&	c #56C66C",
"j&	c #55CB63",
"k&	c #5ACA6D",
"l&	c #336152",
"m&	c #5DD069",
"n&	c #69D174",
"o&	c #63CC6F",
"        . . . . + + + + + + + + + + + + + + + + + + + + . . . . @ @ @ @ @ @ @ @ @ @ @ @ # # # # $ $ $ $ @ @ @ @ % % % % # # # # ",
"        . . . . + + + + + + + + + + + + + + + + + + + + . . . . @ @ @ @ @ @ @ @ @ @ @ @ # # # # $ $ $ $ @ @ @ @ % % % % # # # # ",
"        . . . . + + + + + + + + + + + + + + + + + + + + . . . . @ @ @ @ @ @ @ @ @ @ @ @ # # # # $ $ $ $ @ @ @ @ % % % % # # # # ",
"        . . . . + + + + + + + + + + + + + + + + + + + + . . . . @ @ @ @ @ @ @ @ @ @ @ @ # # # # $ $ $ $ @ @ @ @ % % % % # # # # ",
"# # # # + + + + + + + +         + + + +                 & & & & @ @ @ @ @ @ @ @ # # # # # # # # # # # # # # # # $ $ $ $         ",
"# # # # + + + + + + + +         + + + +                 & & & & @ @ @ @ @ @ @ @ # # # # # # # # # # # # # # # # $ $ $ $         ",
"# # # # + + + + + + + +         + + + +                 & & & & @ @ @ @ @ @ @ @ # # # # # # # # # # # # # # # # $ $ $ $         ",
"# # # # + + + + + + + +         + + + +                 & & & & @ @ @ @ @ @ @ @ # # # # # # # # # # # # # # # # $ $ $ $         ",
"# # # # * * * * = = = = @ @ @ @ & & & &         # # # # - - - - @ @ @ @ # # # # # # # # # # # # # # # # # # # # $ $ $ $         ",
"# # # # * * * * = = = = @ @ @ @ & & & &         # # # # - - - - @ @ @ @ # # # # # # # # # # # # # # # # # # # # $ $ $ $         ",
"# # # # * * * * = = = = @ @ @ @ & & & &         # # # # - - - - @ @ @ @ # # # # # # # # # # # # # # # # # # # # $ $ $ $         ",
"# # # # * * * * = = = = @ @ @ @ & & & &         # # # # - - - - @ @ @ @ # # # # # # # # # # # # # # # # # # # # $ $ $ $         ",
"        @ @ @ @         % % % % # # # # ; ; ; ; # # # # $ $ $ > , ' @ @ # # # # # # # # # # # # # # # # # # # # # # # # $ $ $ $ ",
"        @ @ @ @         % % % % # # # # ; ; ; ; # # # # $ $ > ) ! ~ { @ # # # # # # # # # # # # # # # # # # # # # # # # $ $ $ $ ",
"        @ @ @ @         % % % % # # # # ; ; ; ; # # # # $ $ ] ^ / ( _ @ # # # # # # # # # # # # # # # # # # # # # # # # $ $ $ $ ",
"        @ @ @ @         % % % % # # # # ; ; ; ; # # # # $ > : < [ } | @ # # # # # # # # # # # # # # # # # # # # # # # # $ $ $ $ ",
"@ @ @ @ @ @ @ @ & & & & % % % % @ @ @ @ @ @ @ @ 1 1 1 1 ; 2 3 4 5 6 7 8 @ @ @ @ # # # # # # # # # # # # - - - - $ $ $ $         ",
"@ { 9 0 a @ @ @ & & & & % % % % @ @ @ @ @ @ @ @ 1 1 1 1 ; b c d 5 e f g @ @ @ @ # # # # # # # # # # # # - - - - $ $ $ $ h i j k ",
"' l m n o | @ @ & & & & % % % % @ @ @ @ @ @ @ @ 1 1 1 1 - p q r s t u v @ @ @ @ # # # # # # # # # # # # - - - - $ $ > : w x y z ",
"A B C D E w 0 @ & & & & % % % % @ @ @ @ @ @ @ @ 1 1 1 1 b F G H I J K m _ @ @ @ # # # # # # # # # # # # - - - - $ $ L M E N O P ",
"A Q R S T Q _ @ # # # # # # # # # # # # U U U U V g = V W X Y Z I `  ...+.@.@.g = + + + @ @ @ @ # # # #         $ $ ] c D #.$.%.",
"A &.*.=.-.u | @ # # # # # # # # # # # # U U U U ;.>.,.'.).!.~.{.I Z ].!.^./.(._.8 + + + @ @ @ @ # # # #         $ $ : u :.<.[.%.",
"A }.[.|.<.1.2.l 3.# # # # # # # # # # # U U U U 4.5.6.7.u 8.Z I I I 9.0.a.b.c.d.g + + + @ @ @ @ # # # #         e.: F 1.<.f.g.%.",
"A }.h.|.<.*.i.j.k.l.# # # # # # # # # # U U U U ;.m.n.o.p.q.I I I I I r.s.t.u.v.w.+ + + @ @ @ @ # # # #     x.z ^ y.z.R A.B.C.%.",
"A }.D.E.F.G.H.I.J.K.L # # # # # # # # # # # L.> 2 M.N.O.P.~.I I I I I q.Q.O.R.S.w.+ g = + + + +             h T.U.V.W.G.X.E.Y.%.",
"A Z.`.|. +.+++@+#+y.L.# # # # # # # # # $+%+&+*+=+-+;+>+,+'+Z I I I ` )+!+>+~+{+]+^+/+(++ + + +             _+:+<+[+}+|+ +B.1+2+",
"A Z.1+f.*..+$.3+4+5+l.# # # # # # # # # 6+7+8+9+0+%+a+b+c+d+~.I I I q.e+f+g+h+v (+i+j+k+g + + +           x.z } l+3+m+.+}+n+o+2+",
"A p+q+r+s+t+u+B.v+w+x+L.# # # # # # # # 6+y+z+A+B+C+D+E+F+G+H+Z I q.I+J+K+L+M+N+6.O+P+Q+w.+ + +           _+B R+S+n+T+U+*.r+V+2+",
"W+y.D.X+Y+Z+`+ @=..@+@l.# # # # # # # # @@#@$@%@&@*@=@-@;@>@I+Z I ,@'@)@!@-@~@{@]@^@]@/@]++ + + (@(@(@(@  z _@Y :@<@[@D.r+X+g.}@",
"W+|@1@X+2@ @`+[.|.=.3@4@*+3.# # # # # # L.5@6@7@8@9@0@a@b@c@d@Z I ,@)+e@f@g@h@i@j@k@l@m@n@= + + (@(@(@o@p@q@r@=.|.s@t@u@2@v@w@x@",
"y@z@[@[.A@B@*.X+r+C@v+D@E@w *+] L L L l.F@G@H@I@<.C@J@K@L@M@N@Z I q.N@O@P@Q@J@A.R@S@T@U@V@(+W@8 o@o@X@m Y@3@Z@`@2@ #$.2@X+s@.#+#",
"x.@#n 1.##++B.u@r+r+B.<.N $#%#&#..*#=#+@K -#;#>#,#'#$.)#!#~#{#,@]#^#{#/#(#_#<@=.,#S+:#<#G u Z.&.[#}#|#3@T C@B.B.r+u@B.2@ #1#2#3#",
"4#5#( 1#6#++r+r+r+r+r+r+|.<.7#8#-.9#-#0#a#I v+b#c#C@|.d#e#f#g#h#I h##.f#i#j#E.k#<.<.l#m#J 0.-#n#-.o#-.<.p#r+r+r+r+r+r+2@q#1#y ]+",
"4#  r#s#r+t#r+r+r+r+r+r+r+B.A.=.'#v+v+v+u#v#C@`@|.B.|.,#w#x#y#[+z#A#y#B#C#,#Y+X+B.C@D#v#u#v+v+v+=.'#<.B.r+r+r+r+r+r+r+B.++E#F#V ",
"4#4#j G#H#f.B.r+r+r+r+r+r+r+B.r+B.I#D#C@C@k#B.B.[.1.J#v#K#L#M#N#O#P#Q#R#S#T#U#V#D.B.B.I#D#C@C@k#B.B.B.r+r+r+r+r+r+r+B.|.W#o ]++ ",
"4#4#4#X#Y#W#B.B.B.r+r+r+r+r+r+r+r+B.B.B.B.n+|.u+.+Z#`#A# $.$+$@$#$$$+$.$%$A#&$*$=$-$f.B.B.B.B.B.r+r+r+r+r+r+r+r+B.B.Y+W#;$+.V + ",
"+ + + + p@>$,$*.r+B.B.r+r+r+r+r+r+r+r+'$B.r+1@)$!$~${$]$^$/$($O#_$O#:$^$<$[$,@}$V+)$T+n+B.r+r+r+r+r+r+r+r+r+B.B.r+1.|$1$+.V + + ",
"+ + + +   p@2$3$`.*.r+B.B.B.B.B.B.B.B.r+m+4$t+V+5$6$7$8$9$0$^$a$b$c$^$0$9$d$7$e$C@V+t+f$$.r+B.B.B.B.B.B.B.B.r+1.1+g$h$i$V + + + ",
"+ + + +     j$p@k$l$1+1.*.*.*.*.*.m$*.q+n$o$p$'#<.q$r$s$t$t$0$u$v$w$0$t$t$u$]$x$<.'#y$)$=$z$1.*.*.*.*.*.m$*.1+g$h$A$B$C$+ + + + ",
"+ + + +         @@l.D$E$=#F$F$F$F$F$G$H$V#X.,#=.I$J$K$0$t$t$t$t$t$t$t$t$t$L$M$N$x$=.v+O$V#P$f Q$&.&.&.&.&.p+h$p@B$C$. . + + + + ",
"+ + + + + + + + R$R$S$h L L L L L ] l.=#o#v+<.<.I$N$T$U$V$V$t$t$t$t$t$V$V$U$W$N$x$<.<.#.F.=#l.X$i i i i i i i x.                ",
"+ + + + + + + + R$R$R$R$# # # # # # 6+..T =.<.<.q$Y$Z$`$L$t$V$V$V$V$V$ %U$.%+%@%=.<.<.,#8#..] #                                 ",
"+ + + + + + + + R$R$R$R$# # # # # # 6+#%N =.<.<.:@$%K$.%%%`$L$&%&%&%U$`$%%.%*%=%=.<.<.v+-.&#L #                                 ",
"+ + + + + + + + R$R$R$R$# # # # # # b 3 D@,#=.=.=.C@-%;%.%>%`$`$`$`$`$.%.%,%'%I$=.=.=.,#)%^ L.#                                 ",
"+ + + + @ @ @ @ # # # # # # # # # # # l.%#:.=.<.N f.!%~%{%]%`$`$`$`$`$`$^%/%(%|.C@<.=.8#_%l.$+# $ $ $ $                 4#4#4#4#",
"+ + + + @ @ @ @ # # # # # # # # # # # 6+w :%|.B.B.r+r+<%[%{%}%|%|%|%|%{%[%1%n+'$B.B.E.2%3%X$# # $ $ $ $                 4#4#4#4#",
"+ + + + @ @ @ @ # # # # # # # # # # # # *+4%C f.r+B.h.U+5%6%7%7%7%7%7%8%9%0%h.B.'$a%b%c%l.$+# # $ $ $ $                 4#4#4#4#",
"+ + + + @ @ @ @ # # # # # # # # # # # # # d%e%u+r+r+V+f%V+z$g%g%g%g%g%z$`.f%h%r+r+i%j%k%$+# # # $ $ $ $                 4#4#4#4#",
"@ @ @ @ # # # # U U U U $ $ $ $ # # # # - l%m%t+n%r+h%H$o%p%p%p%p%p%p%p%q%f%r%r+o%s%t%u%        R$R$R$R$; ; ; ; v%v%v%v%+ + + + ",
"@ @ @ @ # # # # U U U U $ $ $ $ # # # # - w%|#O r+B.[.x%y% #h%h%h%h%h%X+z%0%m+B.r+u+A%0         R$R$R$R$; ; ; ; v%v%v%v%+ + + + ",
"@ @ @ @ # # # # U U U U $ $ $ $ # # # # - w%p+B%|.r+C%D%)$[.E%o%F%o% #*.)$`.G%r+E.m$H%0         R$R$R$R$; ; ; ; v%v%v%v%+ + + + ",
"@ @ @ @ # # # # U U U U $ $ $ $ # # # # - 2 F V+<@f.2@$.n$*.'$2@2@2@I%D.J% @2@B. @|$2._         R$R$R$R$; ; ; ; v%v%v%v%+ + + + ",
"(@(@(@(@+ + + + K%K%K%K%@ @ @ @         R$R$p@L%M%N%t+N%G.*.B.r+r+f.2@O%n P%Z#Q%i.R%| ' @ @ @ @ S%S%S%S%+ + + + + + + + + + + + ",
"(@(@(@(@+ + + + K%K%K%K%@ @ @ @         S$h T%U@U%M%V%t+W%B.r+r+r+|.O X%7.x+Y%f Z%l ' @ @ @ @ @ S%S%S%S%+ + + + + + + + + + + + ",
"(@(@(@(@+ + + + K%K%`% &9 a @ @   h i p@o E$u .&+&$.*.*.r+r+r+B.|.W#@&v + ;.o@8 9 ' @ @ @ @ @ @ S%S%S%S%+ + + + + + + + + + + + ",
"(@(@(@(@+ + + + K%K%#&$&%&&&~ *&p@=&:+-&.&T F.|.B.B.B.B.B.B.n+B%W#;$+.V + + + + @ @ @ @ @ @ @ @ S%S%S%S%+ + + + + + + + + + + + ",
"        . . . . + + ;&{+>&,&'&)&!&~&++{&E.E.E.B.B.B.B.n+m$m$s@}.]&l ' @ @ @ @ @ @ @ @ @ @ @ @ @ @ @ @ @ + + + + + + + + = = = = ",
"        . . . . + + + ^&/&(&_&:&<&B.}+}+*.*.*.*.*.*.m$s@A%Q ( | 0 ' @ @ @ @ @ @ @ @ @ @ @ @ @ @ @ @ @ @ + + + + + + + + = = = = ",
"        . . . . + + + + [&}&s+|&1&2&3&Q &.&.&.&.&.&.Z.( | 4&0 ' @ @ @ @ @ @ @ @ @ @ @ @ @ @ @ @ @ @ @ @ + + + + + + + + = = = = ",
"        . . . . + + V 5&6&7&8&9&0&a&X@b&B$B$B$B$0 0 0 0 ' @ @ @ @ @ @ @ @ @ @ @ @ @ @ @ @ @ @ @ @ @ @ @ + + + + + + + + = = = = ",
"                . . B$F c&d&e&f&g&h&i&+ j&j&j&j&+ + + + @ @ @ @ @ @ @ @ @ @ @ @ @ @ @ @ @ @ @ @ @ @ @ @ @ @ @ @ @ @ @ @         ",
"                . . k&l&7 3#/.+ g g V + j&j&j&j&+ + + + @ @ @ @ @ @ @ @ @ @ @ @ @ @ @ @ @ @ @ @ @ @ @ @ @ @ @ @ @ @ @ @         ",
"                . . m&n&o&V + + + + + + j&j&j&j&+ + + + @ @ @ @ @ @ @ @ @ @ @ @ @ @ @ @ @ @ @ @ @ @ @ @ @ @ @ @ @ @ @ @         ",
"                . . . . + + + + + + + + j&j&j&j&+ + + + @ @ @ @ @ @ @ @ @ @ @ @ @ @ @ @ @ @ @ @ @ @ @ @ @ @ @ @ @ @ @ @         "};
