/* XPM */
static char * Pokeball_02_Frame01_xpm[] = {
"64 64 304 2",
"  	c #5AD167",
". 	c #5AD067",
"+ 	c #55CB64",
"@ 	c #59CE67",
"# 	c #62D46C",
"$ 	c #61D46C",
"% 	c #5ACE67",
"& 	c #59CF67",
"* 	c #5AD066",
"= 	c #55CB65",
"- 	c #62D36C",
"; 	c #61D36B",
"> 	c #59CF68",
", 	c #62D36B",
"' 	c #54CB64",
") 	c #56C864",
"! 	c #52C461",
"~ 	c #59CD66",
"{ 	c #60CE69",
"] 	c #35534C",
"^ 	c #33484A",
"/ 	c #33494A",
"( 	c #324849",
"_ 	c #34474B",
": 	c #34524B",
"< 	c #53C561",
"[ 	c #5FCD69",
"} 	c #5ECA67",
"| 	c #364850",
"1 	c #333450",
"2 	c #33344F",
"3 	c #354A51",
"4 	c #51C25F",
"5 	c #53C661",
"6 	c #856249",
"7 	c #885D4E",
"8 	c #8E94F6",
"9 	c #8D96FB",
"0 	c #8E96FB",
"a 	c #8F97FB",
"b 	c #8E95FB",
"c 	c #6B75E4",
"d 	c #6C74DF",
"e 	c #89594C",
"f 	c #836048",
"g 	c #5FCE69",
"h 	c #5ECB67",
"i 	c #8B5949",
"j 	c #904F4E",
"k 	c #9299FB",
"l 	c #939AFF",
"m 	c #9098FF",
"n 	c #9199FF",
"o 	c #6E77E9",
"p 	c #6E76E4",
"q 	c #8F4D4B",
"r 	c #8B5A48",
"s 	c #55CC64",
"t 	c #60CF69",
"u 	c #84624B",
"v 	c #8B5D4C",
"w 	c #FA7F77",
"x 	c #FD847D",
"y 	c #F5F2F5",
"z 	c #F1F3F8",
"A 	c #919AFF",
"B 	c #8F97FF",
"C 	c #8E98FF",
"D 	c #9196FA",
"E 	c #E95551",
"F 	c #E9564B",
"G 	c #8A5949",
"H 	c #836049",
"I 	c #895849",
"J 	c #924D4A",
"K 	c #FD7F77",
"L 	c #FF847D",
"M 	c #F7F1EF",
"N 	c #F4F1F4",
"O 	c #9299FF",
"P 	c #9097FF",
"Q 	c #9197FA",
"R 	c #9495F5",
"S 	c #EC5551",
"T 	c #EB534B",
"U 	c #914C49",
"V 	c #8A5A49",
"W 	c #86634B",
"X 	c #8D5D4C",
"Y 	c #E9544B",
"Z 	c #EC544B",
"` 	c #EC554D",
" .	c #EC554E",
"..	c #FF847C",
"+.	c #FC8580",
"@.	c #9399FB",
"#.	c #9099FF",
"$.	c #9297FB",
"%.	c #E95656",
"&.	c #EB5550",
"*.	c #EC544C",
"=.	c #8C5A4A",
"-.	c #85604A",
";.	c #5AD166",
">.	c #5BD167",
",.	c #855949",
"'.	c #8D4B47",
").	c #E85550",
"!.	c #EB544C",
"~.	c #FF7E77",
"{.	c #FC817C",
"].	c #9096F7",
"^.	c #9094F5",
"/.	c #ED5349",
"(.	c #8D4A48",
"_.	c #855A48",
":.	c #193A1A",
"<.	c #0D090F",
"[.	c #6C73DF",
"}.	c #7375E1",
"|.	c #EB544F",
"1.	c #EE544A",
"2.	c #EE554D",
"3.	c #E9544D",
"4.	c #34324C",
"5.	c #2F324C",
"6.	c #30334E",
"7.	c #35334E",
"8.	c #EA554D",
"9.	c #EF554D",
"0.	c #EE534A",
"a.	c #EA554F",
"b.	c #7275E1",
"c.	c #6C73DE",
"d.	c #0C0A12",
"e.	c #163718",
"f.	c #52C561",
"g.	c #153918",
"h.	c #070810",
"i.	c #6772DF",
"j.	c #6E74E1",
"k.	c #E65554",
"l.	c #EA544E",
"m.	c #E9544C",
"n.	c #E3534B",
"o.	c #37364D",
"p.	c #32354C",
"q.	c #30324B",
"r.	c #36334A",
"s.	c #E2524B",
"t.	c #E8534B",
"u.	c #E75554",
"v.	c #6D74E1",
"w.	c #05070F",
"x.	c #113616",
"y.	c #030305",
"z.	c #2F3049",
"A.	c #31334F",
"B.	c #6F75E1",
"C.	c #38364E",
"D.	c #EDEDEE",
"E.	c #EFEFF1",
"F.	c #9898A1",
"G.	c #92939A",
"H.	c #130D0D",
"I.	c #14090F",
"J.	c #6E74DE",
"K.	c #323450",
"L.	c #2F304A",
"M.	c #030304",
"N.	c #123717",
"O.	c #32334A",
"P.	c #363750",
"Q.	c #6A73E1",
"R.	c #6973E1",
"S.	c #2D304B",
"T.	c #EFEFF0",
"U.	c #F2F2F3",
"V.	c #9B9BA3",
"W.	c #94949D",
"X.	c #080A0A",
"Y.	c #6972DF",
"Z.	c #6974E1",
"`.	c #33354F",
" +	c #313248",
".+	c #5ECD69",
"++	c #61D36C",
"@+	c #56CC64",
"#+	c #131313",
"$+	c #EBEBEC",
"%+	c #343550",
"&+	c #2C2E48",
"*+	c #040407",
"=+	c #09090A",
"-+	c #9898A0",
";+	c #9C9CA4",
">+	c #9A9AA2",
",+	c #95959E",
"'+	c #0A0A0A",
")+	c #2F304B",
"!+	c #96969F",
"~+	c #95959D",
"{+	c #133516",
"]+	c #19461E",
"^+	c #1B381E",
"/+	c #EAEAEA",
"(+	c #ECECEC",
"_+	c #393A51",
":+	c #141416",
"<+	c #141415",
"[+	c #919199",
"}+	c #96969E",
"|+	c #92929A",
"1+	c #0F0F10",
"2+	c #08080A",
"3+	c #313249",
"4+	c #35364D",
"5+	c #94949C",
"6+	c #1A3B1D",
"7+	c #1C4720",
"8+	c #59CD67",
"9+	c #57C964",
"0+	c #55C663",
"a+	c #1B391E",
"b+	c #1C1C1D",
"c+	c #F2F2F2",
"d+	c #F1F1F0",
"e+	c #171718",
"f+	c #0F0F11",
"g+	c #9797A0",
"h+	c #18391C",
"i+	c #5DCA67",
"j+	c #6AC671",
"k+	c #1A3C1D",
"l+	c #1B301D",
"m+	c #F6F6F6",
"n+	c #EDEDED",
"o+	c #080809",
"p+	c #101011",
"q+	c #9999A1",
"r+	c #97979F",
"s+	c #93939A",
"t+	c #142F17",
"u+	c #1B3E1F",
"v+	c #64C36E",
"w+	c #59D066",
"x+	c #6CCA74",
"y+	c #52B25A",
"z+	c #51B159",
"A+	c #4FAF58",
"B+	c #1A321C",
"C+	c #181818",
"D+	c #9B9BA4",
"E+	c #152F17",
"F+	c #4FAE58",
"G+	c #50B059",
"H+	c #4BB056",
"I+	c #65C76F",
"J+	c #61D26B",
"K+	c #56B55E",
"L+	c #52B35A",
"M+	c #152F18",
"N+	c #163B19",
"O+	c #51B25A",
"P+	c #4AAF55",
"Q+	c #4FB25A",
"R+	c #59CF66",
"S+	c #0A0A0B",
"T+	c #50B15A",
"U+	c #50B25A",
"V+	c #6BCA73",
"W+	c #0F2D12",
"X+	c #49AC55",
"Y+	c #4AAE56",
"Z+	c #49AD55",
"`+	c #4BAD56",
" @	c #66C56F",
".@	c #5ACD67",
"+@	c #6AC672",
"@@	c #51B15A",
"#@	c #4AAC55",
"$@	c #4BAE56",
"%@	c #65C16E",
"&@	c #6AD073",
"*@	c #61BC69",
"=@	c #4AAD56",
"-@	c #5CB866",
";@	c #63CB6F",
">@	c #67D370",
",@	c #6DCD74",
"'@	c #68C36F",
")@	c #5CB864",
"!@	c #54B45C",
"~@	c #51B35A",
"{@	c #53B45C",
"]@	c #5BB864",
"^@	c #65C26D",
"/@	c #66C770",
"(@	c #5FCD6B",
"_@	c #59D167",
":@	c #56CB64",
"<@	c #59D067",
"[@	c #54CA64",
"}@	c #55CB63",
"        . . . . + + + + + + + + + + + + + + + + + + + + . . . . @ @ @ @ @ @ @ @ @ @ @ @ # # # # $ $ $ $ @ @ @ @ % % % % # # # # ",
"        . . . . + + + + + + + + + + + + + + + + + + + + . . . . @ @ @ @ @ @ @ @ @ @ @ @ # # # # $ $ $ $ @ @ @ @ % % % % # # # # ",
"        . . . . + + + + + + + + + + + + + + + + + + + + . . . . @ @ @ @ @ @ @ @ @ @ @ @ # # # # $ $ $ $ @ @ @ @ % % % % # # # # ",
"        . . . . + + + + + + + + + + + + + + + + + + + + . . . . @ @ @ @ @ @ @ @ @ @ @ @ # # # # $ $ $ $ @ @ @ @ % % % % # # # # ",
"# # # # + + + + + + + +         + + + +                 & & & & @ @ @ @ @ @ @ @ # # # # # # # # # # # # # # # # $ $ $ $         ",
"# # # # + + + + + + + +         + + + +                 & & & & @ @ @ @ @ @ @ @ # # # # # # # # # # # # # # # # $ $ $ $         ",
"# # # # + + + + + + + +         + + + +                 & & & & @ @ @ @ @ @ @ @ # # # # # # # # # # # # # # # # $ $ $ $         ",
"# # # # + + + + + + + +         + + + +                 & & & & @ @ @ @ @ @ @ @ # # # # # # # # # # # # # # # # $ $ $ $         ",
"# # # # * * * * = = = = @ @ @ @ & & & &         # # # # - - - - @ @ @ @ # # # # # # # # # # # # # # # # # # # # $ $ $ $         ",
"# # # # * * * * = = = = @ @ @ @ & & & &         # # # # - - - - @ @ @ @ # # # # # # # # # # # # # # # # # # # # $ $ $ $         ",
"# # # # * * * * = = = = @ @ @ @ & & & &         # # # # - - - - @ @ @ @ # # # # # # # # # # # # # # # # # # # # $ $ $ $         ",
"# # # # * * * * = = = = @ @ @ @ & & & &         # # # # - - - - @ @ @ @ # # # # # # # # # # # # # # # # # # # # $ $ $ $         ",
"        @ @ @ @         % % % % # # # # ; ; ; ; # # # # $ $ $ $ @ @ @ @ # # # # # # # # # # # # # # # # # # # # # # # # $ $ $ $ ",
"        @ @ @ @         % % % % # # # # ; ; ; ; # # # # $ $ $ $ @ @ @ @ # # # # # # # # # # # # # # # # # # # # # # # # $ $ $ $ ",
"        @ @ @ @         % % % % # # # # ; ; ; ; # # # # $ $ $ $ @ @ @ @ # # # # # # # # # # # # # # # # # # # # # # # # $ $ $ $ ",
"        @ @ @ @         % % % % # # # # ; ; ; ; # # # # $ $ $ $ @ @ @ @ # # # # # # # # # # # # # # # # # # # # # # # # $ $ $ $ ",
"@ @ @ @ @ @ @ @ & & & & % % % % @ @ @ @ @ @ @ @ > > > > ; ; ; ; + + + + @ @ @ @ # # # # # # # # # # # # - - - - $ $ $ $         ",
"@ @ @ @ @ @ @ @ & & & & % % % % @ @ @ @ @ @ @ @ > > > > ; ; ; ; + + + + @ @ @ @ # # # # # # # # # # # # - - - - $ $ $ $         ",
"@ @ @ @ @ @ @ @ & & & & % % % % @ @ @ @ @ @ @ @ > > > > ; ; ; ; + + + + @ @ @ @ # # # # # # # # # # # # - - - - $ $ $ $         ",
"@ @ @ @ @ @ @ @ & & & & % % % % @ @ @ @ @ @ @ @ > > > > ; ; ; ; + + + + @ @ @ @ # # # # # # # # # # # # - - - - $ $ $ $         ",
"@ @ @ @ @ @ @ @ # # # # # # # # # # # # , , , , + + + + + + + + + + + + ' ' ' ' + + + + @ @ @ @ # # # #         $ $ $ $ @ @ @ @ ",
"@ @ @ @ @ @ @ @ # # # # # # # # # # # # , , , , + + + + + + + + + + + + ' ' ' ' + + + + @ @ @ @ # # # #         $ $ $ $ @ @ @ @ ",
"@ @ @ @ @ @ @ @ # # # # # # # # # # # # , , , , + + + + + + + + + + + + ' ' ' ' + + + + @ @ @ @ # # # #         $ $ $ $ @ @ @ @ ",
"@ @ @ @ @ @ @ @ # # # # # # # # # # # # , , , , + + + + + + + + + + + + ' ' ' ' + + + + @ @ @ @ # # # #         $ $ $ $ @ @ @ @ ",
"@ @ @ @ # # # # # # # # # # # # # # # # # # # # - - - - ) ) ) ) ! ! ! ! + + + + + + + + + + + +                 @ @ @ @ ~ ~ ~ ~ ",
"@ @ @ @ # # # # # # # # # # # # # # # # # # # # - - - { ] ^ / / ( ( _ : < + + + + + + + + + + +                 @ @ @ @ ~ ~ ~ ~ ",
"@ @ @ @ # # # # # # # # # # # # # # # # # # # # - - [ } | 1 2 2 2 2 2 3 4 5 + + + + + + + + + +                 @ @ @ @ ~ ~ ~ ~ ",
"@ @ @ @ # # # # # # # # # # # # # # # # # # # # - { 6 7 8 9 0 0 a b c d e f < + + + + + + + + +                 @ @ @ @ ~ ~ ~ ~ ",
"        # # # # # # # # # # # # # # # # # # # # g h i j k l m n n m o p q r 4 5 + + + + + + + + s s s s                 + + + + ",
"        # # # # # # # # # # # # # # # # # # # t u v w x y z A B m m C D E F G H < + + + + + + + s s s s                 + + + + ",
"        # # # # # # # # # # # # # # # # # # g h I J K L M N O B m P Q R S T U V 4 5 + + + + + + s s s s                 + + + + ",
"        # # # # # # # # # # # # # # # # # g W X Y Z `  ...+.@.#.#.$.%.&.*.*.Z F =.-.< + + + + + s s s s                 + + + + ",
";.;.;.;.>.>.>.>.# # # # # # # # # # # # # g ,.'.).&.!.` ~.{.].9 9 ^.&./.*.*.&.).(._.< + + + + + + + + + s s s s @ @ @ @ + + + + ",
";.;.;.;.>.>.>.>.# # # # # # # # # # # # # g :.<.[.}.|.1.2.3.4.5.6.7.8.9.0.a.b.c.d.e.f.+ + + + + + + + + s s s s @ @ @ @ + + + + ",
";.;.;.;.>.>.>.>.# # # # # # # # # # # # # g g.h.i.j.k.l.m.n.o.p.q.r.s.t.|.u.v.i.w.x.f.+ + + + + + + + + s s s s @ @ @ @ + + + + ",
";.;.;.;.>.>.>.>.# # # # # # # # # # # # # g g.y.z.A.B.j.4.C.D.E.F.G.H.I.J.B.K.L.M.x.f.+ + + + + + + + + s s s s @ @ @ @ + + + + ",
"+ + + +         # # # # # # # # $ $ $ $ @ ) N.y.O.P.Q.R.S.p.T.U.V.W.X.h.Y.Z.`. +M.g..+++@+@+@+@+                . . . . + + + + ",
"+ + + +         # # # # # # # # $ $ $ $ @ ) N.#+$+D.%+&+*+=+-+;+>+,+'+M.)+`.!+~+'+{+.+++@+@+@+@+                . . . . + + + + ",
"+ + + +         # # # # # # # # $ $ $ $ @ ) ]+^+/+(+_+O.:+<+[+W.}+|+1+2+3+4+~+5+6+7+.+++@+@+@+@+                . . . . + + + + ",
"+ + + +         # # # # # # # # $ $ $ $ @ 8+9+0+a+b+$+c+d+/+e+=+=+f+|+!+g+5+1+h+i+.+++++@+@+@+@+                . . . . + + + + ",
"+ + + + + + + + >.>.>.>.# # # # # # # # # # - j+k+l+/+d+m+n+<+o+'+p+!+q+r+s+t+u+v+w+    # # # #                                 ",
"+ + + + + + + + >.>.>.>.# # # # # # # # # ; x+y+z+A+B+C+-+D+}+}+}+,+>+,+1+E+F+G+H+I+w+  # # # #                                 ",
"+ + + + + + + + >.>.>.>.# # # # # # # # # J+K+z+L+z+g.M+|+~+,+,+,+,+}+|+t+N+G+O+P+Q+R+  # # # #                                 ",
"+ + + + + + + + >.>.>.>.# # # # # # # # # J+K+z+O+z+z+A+E+S+S+S+S+S+S+E+F+G+T+T+P+U+w+  # # # #                                 ",
"+ + + + @ @ @ @ # # # # # # # # # # # # # ; V+L+z+O+L+z+g.W+W+W+W+W+W+N+X+Y+Z+X+`+ @.@% # # # # $ $ $ $                 ;.;.;.;.",
"+ + + + @ @ @ @ # # # # # # # # # # # # # # , +@L+@@z+z+G+G+G+G+G+G+G+G+Z+X+#@$@%@.@% % # # # # $ $ $ $                 ;.;.;.;.",
"+ + + + @ @ @ @ # # # # # # # # # # # # # # # ; &@*@L+y+y+y+O+O+O+O+O+O+=@=@-@;@.@% % % # # # # $ $ $ $                 ;.;.;.;.",
"+ + + + @ @ @ @ # # # # # # # # # # # # # # # # # J+>@,@'@)@!@L+~@{@]@^@/@(@8+@ % % % % # # # # $ $ $ $                 ;.;.;.;.",
"@ @ @ @ # # # # , , , , $ $ $ $ # # # # - - - - # # # # # # # # ; ; ; ; @ @ @ @ @ @ @ @         >.>.>.>.; ; ; ; _@_@_@_@+ + + + ",
"@ @ @ @ # # # # , , , , $ $ $ $ # # # # - - - - # # # # # # # # ; ; ; ; @ @ @ @ @ @ @ @         >.>.>.>.; ; ; ; _@_@_@_@+ + + + ",
"@ @ @ @ # # # # , , , , $ $ $ $ # # # # - - - - # # # # # # # # ; ; ; ; @ @ @ @ @ @ @ @         >.>.>.>.; ; ; ; _@_@_@_@+ + + + ",
"@ @ @ @ # # # # , , , , $ $ $ $ # # # # - - - - # # # # # # # # ; ; ; ; @ @ @ @ @ @ @ @         >.>.>.>.; ; ; ; _@_@_@_@+ + + + ",
"s s s s + + + + :@:@:@:@@ @ @ @         >.>.>.>.# # # # $ $ $ $ + + + + + + + + @ @ @ @ @ @ @ @ <@<@<@<@+ + + + + + + + + + + + ",
"s s s s + + + + :@:@:@:@@ @ @ @         >.>.>.>.# # # # $ $ $ $ + + + + + + + + @ @ @ @ @ @ @ @ <@<@<@<@+ + + + + + + + + + + + ",
"s s s s + + + + :@:@:@:@@ @ @ @         >.>.>.>.# # # # $ $ $ $ + + + + + + + + @ @ @ @ @ @ @ @ <@<@<@<@+ + + + + + + + + + + + ",
"s s s s + + + + :@:@:@:@@ @ @ @         >.>.>.>.# # # # $ $ $ $ + + + + + + + + @ @ @ @ @ @ @ @ <@<@<@<@+ + + + + + + + + + + + ",
"        . . . . + + + + [@[@[@[@s s s s . . . . @ @ @ @ @ @ @ @ @ @ @ @ @ @ @ @ @ @ @ @ @ @ @ @ @ @ @ @ + + + + + + + + = = = = ",
"        . . . . + + + + [@[@[@[@s s s s . . . . @ @ @ @ @ @ @ @ @ @ @ @ @ @ @ @ @ @ @ @ @ @ @ @ @ @ @ @ + + + + + + + + = = = = ",
"        . . . . + + + + [@[@[@[@s s s s . . . . @ @ @ @ @ @ @ @ @ @ @ @ @ @ @ @ @ @ @ @ @ @ @ @ @ @ @ @ + + + + + + + + = = = = ",
"        . . . . + + + + [@[@[@[@s s s s . . . . @ @ @ @ @ @ @ @ @ @ @ @ @ @ @ @ @ @ @ @ @ @ @ @ @ @ @ @ + + + + + + + + = = = = ",
"                . . . . + + + + + + + + }@}@}@}@+ + + + @ @ @ @ @ @ @ @ @ @ @ @ @ @ @ @ @ @ @ @ @ @ @ @ @ @ @ @ @ @ @ @         ",
"                . . . . + + + + + + + + }@}@}@}@+ + + + @ @ @ @ @ @ @ @ @ @ @ @ @ @ @ @ @ @ @ @ @ @ @ @ @ @ @ @ @ @ @ @         ",
"                . . . . + + + + + + + + }@}@}@}@+ + + + @ @ @ @ @ @ @ @ @ @ @ @ @ @ @ @ @ @ @ @ @ @ @ @ @ @ @ @ @ @ @ @         ",
"                . . . . + + + + + + + + }@}@}@}@+ + + + @ @ @ @ @ @ @ @ @ @ @ @ @ @ @ @ @ @ @ @ @ @ @ @ @ @ @ @ @ @ @ @         "};
