/* XPM */
static char * Pokeball_01_Frame01_xpm[] = {
"64 64 274 2",
"  	c #5AD167",
". 	c #5AD067",
"+ 	c #55CB64",
"@ 	c #59CE67",
"# 	c #62D46C",
"$ 	c #61D46C",
"% 	c #5ACE67",
"& 	c #59CF67",
"* 	c #5AD066",
"= 	c #55CB65",
"- 	c #62D36C",
"; 	c #61D36B",
"> 	c #59CF68",
", 	c #62D36B",
"' 	c #54CB64",
") 	c #56C864",
"! 	c #52C461",
"~ 	c #59CD66",
"{ 	c #60CE69",
"] 	c #56533A",
"^ 	c #584836",
"/ 	c #574936",
"( 	c #594736",
"_ 	c #575239",
": 	c #53C561",
"< 	c #5FCD69",
"[ 	c #5ECA67",
"} 	c #5C4837",
"| 	c #5E3434",
"1 	c #5D3334",
"2 	c #5C3433",
"3 	c #5C3333",
"4 	c #5C4937",
"5 	c #51C25F",
"6 	c #53C661",
"7 	c #56543A",
"8 	c #5B4C39",
"9 	c #DE6B5A",
"0 	c #E06C5C",
"a 	c #DF6D5D",
"b 	c #E06D5D",
"c 	c #DF6C5C",
"d 	c #AC3E34",
"e 	c #A93F34",
"f 	c #5A4836",
"g 	c #565239",
"h 	c #5FCE69",
"i 	c #5ECB67",
"j 	c #5B4838",
"k 	c #603535",
"l 	c #E16F60",
"m 	c #E57162",
"n 	c #E36E5E",
"o 	c #E26D5D",
"p 	c #B03F36",
"q 	c #AC3E35",
"r 	c #5E3333",
"s 	c #5B4937",
"t 	c #55CC64",
"u 	c #60CF69",
"v 	c #56553A",
"w 	c #5C4C39",
"x 	c #DE6B5B",
"y 	c #E17061",
"z 	c #F5F1EF",
"A 	c #F5EFEF",
"B 	c #E27061",
"C 	c #E26E5E",
"D 	c #E06C5D",
"E 	c #AA3F35",
"F 	c #5F3434",
"G 	c #E06B5B",
"H 	c #E47161",
"I 	c #F5F0EF",
"J 	c #E26E5D",
"K 	c #AE3E35",
"L 	c #AA3C34",
"M 	c #58553A",
"N 	c #5C4B38",
"O 	c #AA3F34",
"P 	c #AD3E35",
"Q 	c #AE3F36",
"R 	c #E27060",
"S 	c #E37161",
"T 	c #E36F5E",
"U 	c #E46F5F",
"V 	c #AC3D34",
"W 	c #AC3D35",
"X 	c #AA4035",
"Y 	c #5C4836",
"Z 	c #5AD166",
"` 	c #5BD167",
" .	c #584837",
"..	c #5B3232",
"+.	c #AE3D34",
"@.	c #AB3D34",
"#.	c #E06B5A",
"$.	c #E16C5B",
"%.	c #DE6C5C",
"&.	c #574836",
"*.	c #173A1A",
"=.	c #0C0505",
"-.	c #AA3D34",
";.	c #AF3E35",
">.	c #48453B",
",.	c #47453B",
"'.	c #47463C",
").	c #4A453B",
"!.	c #AD3D34",
"~.	c #AA3C33",
"{.	c #0E0504",
"].	c #143718",
"^.	c #52C561",
"/.	c #153918",
"(.	c #0B0403",
"_.	c #A83D34",
":.	c #4A493F",
"<.	c #474940",
"[.	c #45473E",
"}.	c #48473D",
"|.	c #A73D34",
"1.	c #A73C34",
"2.	c #0A0303",
"3.	c #113616",
"4.	c #050404",
"5.	c #434339",
"6.	c #48443A",
"7.	c #AB3E35",
"8.	c #4B4A41",
"9.	c #EDEEEE",
"0.	c #F0F0F0",
"a.	c #9899A1",
"b.	c #92929A",
"c.	c #100C0C",
"d.	c #110605",
"e.	c #49453C",
"f.	c #45443A",
"g.	c #040404",
"h.	c #123717",
"i.	c #050505",
"j.	c #46483F",
"k.	c #4B4A40",
"l.	c #A93E35",
"m.	c #47483F",
"n.	c #F2F2F3",
"o.	c #9B9BA3",
"p.	c #94949D",
"q.	c #080A0A",
"r.	c #A93D34",
"s.	c #AA3E35",
"t.	c #49473F",
"u.	c #45463C",
"v.	c #5ECD69",
"w.	c #61D36C",
"x.	c #56CC64",
"y.	c #131313",
"z.	c #ECECEC",
"A.	c #EEEEED",
"B.	c #4A473D",
"C.	c #424037",
"D.	c #070605",
"E.	c #0A0A09",
"F.	c #9898A0",
"G.	c #9C9CA4",
"H.	c #9A9AA2",
"I.	c #95959E",
"J.	c #0A0A0A",
"K.	c #040303",
"L.	c #454339",
"M.	c #49473E",
"N.	c #97979E",
"O.	c #95959D",
"P.	c #133516",
"Q.	c #19461E",
"R.	c #1B381E",
"S.	c #EAEAEA",
"T.	c #EBEBEB",
"U.	c #4C4E44",
"V.	c #46463D",
"W.	c #151515",
"X.	c #141415",
"Y.	c #919199",
"Z.	c #96969E",
"`.	c #0F0F10",
" +	c #09090A",
".+	c #494A40",
"++	c #93939C",
"@+	c #1A3B1D",
"#+	c #1C4720",
"$+	c #59CD67",
"%+	c #57C964",
"&+	c #55C663",
"*+	c #1B391E",
"=+	c #1D1D1C",
"-+	c #F2F2F2",
";+	c #171718",
">+	c #0F0F11",
",+	c #96969F",
"'+	c #94949C",
")+	c #18391C",
"!+	c #5DCA67",
"~+	c #6AC671",
"{+	c #1A3C1D",
"]+	c #1B301D",
"^+	c #F1F1F0",
"/+	c #F6F6F6",
"(+	c #EDEDED",
"_+	c #080809",
":+	c #101011",
"<+	c #9999A1",
"[+	c #97979F",
"}+	c #93939B",
"|+	c #142F17",
"1+	c #1B3E1F",
"2+	c #64C36E",
"3+	c #59D066",
"4+	c #6CCA74",
"5+	c #52B25A",
"6+	c #51B159",
"7+	c #4FAF58",
"8+	c #1A321C",
"9+	c #181818",
"0+	c #9B9BA4",
"a+	c #152F17",
"b+	c #4FAE58",
"c+	c #50B059",
"d+	c #4BB056",
"e+	c #65C76F",
"f+	c #61D26B",
"g+	c #56B55E",
"h+	c #52B35A",
"i+	c #152F18",
"j+	c #163B19",
"k+	c #51B25A",
"l+	c #4AAF55",
"m+	c #4FB25A",
"n+	c #59CF66",
"o+	c #0A0A0B",
"p+	c #50B15A",
"q+	c #50B25A",
"r+	c #6BCA73",
"s+	c #0F2D12",
"t+	c #49AC55",
"u+	c #4AAE56",
"v+	c #49AD55",
"w+	c #4BAD56",
"x+	c #66C56F",
"y+	c #5ACD67",
"z+	c #6AC672",
"A+	c #51B15A",
"B+	c #4AAC55",
"C+	c #4BAE56",
"D+	c #65C16E",
"E+	c #6AD073",
"F+	c #61BC69",
"G+	c #4AAD56",
"H+	c #5CB866",
"I+	c #63CB6F",
"J+	c #67D370",
"K+	c #6DCD74",
"L+	c #68C36F",
"M+	c #5CB864",
"N+	c #54B45C",
"O+	c #51B35A",
"P+	c #53B45C",
"Q+	c #5BB864",
"R+	c #65C26D",
"S+	c #66C770",
"T+	c #5FCD6B",
"U+	c #59D167",
"V+	c #56CB64",
"W+	c #59D067",
"X+	c #54CA64",
"Y+	c #55CB63",
"        . . . . + + + + + + + + + + + + + + + + + + + + . . . . @ @ @ @ @ @ @ @ @ @ @ @ # # # # $ $ $ $ @ @ @ @ % % % % # # # # ",
"        . . . . + + + + + + + + + + + + + + + + + + + + . . . . @ @ @ @ @ @ @ @ @ @ @ @ # # # # $ $ $ $ @ @ @ @ % % % % # # # # ",
"        . . . . + + + + + + + + + + + + + + + + + + + + . . . . @ @ @ @ @ @ @ @ @ @ @ @ # # # # $ $ $ $ @ @ @ @ % % % % # # # # ",
"        . . . . + + + + + + + + + + + + + + + + + + + + . . . . @ @ @ @ @ @ @ @ @ @ @ @ # # # # $ $ $ $ @ @ @ @ % % % % # # # # ",
"# # # # + + + + + + + +         + + + +                 & & & & @ @ @ @ @ @ @ @ # # # # # # # # # # # # # # # # $ $ $ $         ",
"# # # # + + + + + + + +         + + + +                 & & & & @ @ @ @ @ @ @ @ # # # # # # # # # # # # # # # # $ $ $ $         ",
"# # # # + + + + + + + +         + + + +                 & & & & @ @ @ @ @ @ @ @ # # # # # # # # # # # # # # # # $ $ $ $         ",
"# # # # + + + + + + + +         + + + +                 & & & & @ @ @ @ @ @ @ @ # # # # # # # # # # # # # # # # $ $ $ $         ",
"# # # # * * * * = = = = @ @ @ @ & & & &         # # # # - - - - @ @ @ @ # # # # # # # # # # # # # # # # # # # # $ $ $ $         ",
"# # # # * * * * = = = = @ @ @ @ & & & &         # # # # - - - - @ @ @ @ # # # # # # # # # # # # # # # # # # # # $ $ $ $         ",
"# # # # * * * * = = = = @ @ @ @ & & & &         # # # # - - - - @ @ @ @ # # # # # # # # # # # # # # # # # # # # $ $ $ $         ",
"# # # # * * * * = = = = @ @ @ @ & & & &         # # # # - - - - @ @ @ @ # # # # # # # # # # # # # # # # # # # # $ $ $ $         ",
"        @ @ @ @         % % % % # # # # ; ; ; ; # # # # $ $ $ $ @ @ @ @ # # # # # # # # # # # # # # # # # # # # # # # # $ $ $ $ ",
"        @ @ @ @         % % % % # # # # ; ; ; ; # # # # $ $ $ $ @ @ @ @ # # # # # # # # # # # # # # # # # # # # # # # # $ $ $ $ ",
"        @ @ @ @         % % % % # # # # ; ; ; ; # # # # $ $ $ $ @ @ @ @ # # # # # # # # # # # # # # # # # # # # # # # # $ $ $ $ ",
"        @ @ @ @         % % % % # # # # ; ; ; ; # # # # $ $ $ $ @ @ @ @ # # # # # # # # # # # # # # # # # # # # # # # # $ $ $ $ ",
"@ @ @ @ @ @ @ @ & & & & % % % % @ @ @ @ @ @ @ @ > > > > ; ; ; ; + + + + @ @ @ @ # # # # # # # # # # # # - - - - $ $ $ $         ",
"@ @ @ @ @ @ @ @ & & & & % % % % @ @ @ @ @ @ @ @ > > > > ; ; ; ; + + + + @ @ @ @ # # # # # # # # # # # # - - - - $ $ $ $         ",
"@ @ @ @ @ @ @ @ & & & & % % % % @ @ @ @ @ @ @ @ > > > > ; ; ; ; + + + + @ @ @ @ # # # # # # # # # # # # - - - - $ $ $ $         ",
"@ @ @ @ @ @ @ @ & & & & % % % % @ @ @ @ @ @ @ @ > > > > ; ; ; ; + + + + @ @ @ @ # # # # # # # # # # # # - - - - $ $ $ $         ",
"@ @ @ @ @ @ @ @ # # # # # # # # # # # # , , , , + + + + + + + + + + + + ' ' ' ' + + + + @ @ @ @ # # # #         $ $ $ $ @ @ @ @ ",
"@ @ @ @ @ @ @ @ # # # # # # # # # # # # , , , , + + + + + + + + + + + + ' ' ' ' + + + + @ @ @ @ # # # #         $ $ $ $ @ @ @ @ ",
"@ @ @ @ @ @ @ @ # # # # # # # # # # # # , , , , + + + + + + + + + + + + ' ' ' ' + + + + @ @ @ @ # # # #         $ $ $ $ @ @ @ @ ",
"@ @ @ @ @ @ @ @ # # # # # # # # # # # # , , , , + + + + + + + + + + + + ' ' ' ' + + + + @ @ @ @ # # # #         $ $ $ $ @ @ @ @ ",
"@ @ @ @ # # # # # # # # # # # # # # # # # # # # - - - - ) ) ) ) ! ! ! ! + + + + + + + + + + + +                 @ @ @ @ ~ ~ ~ ~ ",
"@ @ @ @ # # # # # # # # # # # # # # # # # # # # - - - { ] ^ / / / / ( _ : + + + + + + + + + + +                 @ @ @ @ ~ ~ ~ ~ ",
"@ @ @ @ # # # # # # # # # # # # # # # # # # # # - - < [ } | 1 1 1 2 3 4 5 6 + + + + + + + + + +                 @ @ @ @ ~ ~ ~ ~ ",
"@ @ @ @ # # # # # # # # # # # # # # # # # # # # - { 7 8 9 0 a a b c d e f g : + + + + + + + + +                 @ @ @ @ ~ ~ ~ ~ ",
"        # # # # # # # # # # # # # # # # # # # # h i j k l m n n n o p q r s 5 6 + + + + + + + + t t t t                 + + + + ",
"        # # # # # # # # # # # # # # # # # # # u v w x y z A B o C C o D q E f g : + + + + + + + t t t t                 + + + + ",
"        # # # # # # # # # # # # # # # # # # h i ( F G H I A B o C o J 0 K L r s 5 6 + + + + + + t t t t                 + + + + ",
"        # # # # # # # # # # # # # # # # # h M N O d P Q R S n T U o Q P P V W X Y _ : + + + + + t t t t                 + + + + ",
"Z Z Z Z ` ` ` ` # # # # # # # # # # # # # h  ...d +.@.P #.$.b a b %.P @.V V +.V ..&.: + + + + + + + + + t t t t @ @ @ @ + + + + ",
"Z Z Z Z ` ` ` ` # # # # # # # # # # # # # h *.=.-.K V V ;.q >.,.'.).q K V !.;.~.{.].^.+ + + + + + + + + t t t t @ @ @ @ + + + + ",
"Z Z Z Z ` ` ` ` # # # # # # # # # # # # # h /.(._.q V V @._.:.<.[.}.|.~.q V q 1.2.3.^.+ + + + + + + + + t t t t @ @ @ @ + + + + ",
"Z Z Z Z ` ` ` ` # # # # # # # # # # # # # h /.4.5.6.!.7.6.8.9.0.a.b.c.d.@.q e.f.g.3.^.+ + + + + + + + + t t t t @ @ @ @ + + + + ",
"+ + + +         # # # # # # # # $ $ $ $ @ ) h.i.j.k.l.l.5.m.0.n.o.p.q.(.r.s.t.u.g./.v.w.x.x.x.x.                . . . . + + + + ",
"+ + + +         # # # # # # # # $ $ $ $ @ ) h.y.z.A.B.C.D.E.F.G.H.I.J.K.L.M.N.O.J.P.v.w.x.x.x.x.                . . . . + + + + ",
"+ + + +         # # # # # # # # $ $ $ $ @ ) Q.R.S.T.U.V.W.X.Y.p.Z.b.`. +u..+p.++@+#+v.w.x.x.x.x.                . . . . + + + + ",
"+ + + +         # # # # # # # # $ $ $ $ @ $+%+&+*+=+z.-+0.S.;+ + +>+b.,+F.'+`.)+!+v.w.w.x.x.x.x.                . . . . + + + + ",
"+ + + + + + + + ` ` ` ` # # # # # # # # # # - ~+{+]+S.^+/+(+X._+J.:+,+<+[+}+|+1+2+3+    # # # #                                 ",
"+ + + + + + + + ` ` ` ` # # # # # # # # # ; 4+5+6+7+8+9+F.0+Z.Z.Z.I.H.I.`.a+b+c+d+e+3+  # # # #                                 ",
"+ + + + + + + + ` ` ` ` # # # # # # # # # f+g+6+h+6+/.i+b.O.I.I.I.I.Z.b.|+j+c+k+l+m+n+  # # # #                                 ",
"+ + + + + + + + ` ` ` ` # # # # # # # # # f+g+6+k+6+6+7+a+o+o+o+o+o+o+a+b+c+p+p+l+q+3+  # # # #                                 ",
"+ + + + @ @ @ @ # # # # # # # # # # # # # ; r+h+6+k+h+6+/.s+s+s+s+s+s+j+t+u+v+t+w+x+y+% # # # # $ $ $ $                 Z Z Z Z ",
"+ + + + @ @ @ @ # # # # # # # # # # # # # # , z+h+A+6+6+c+c+c+c+c+c+c+c+v+t+B+C+D+y+% % # # # # $ $ $ $                 Z Z Z Z ",
"+ + + + @ @ @ @ # # # # # # # # # # # # # # # ; E+F+h+5+5+5+k+k+k+k+k+k+G+G+H+I+y+% % % # # # # $ $ $ $                 Z Z Z Z ",
"+ + + + @ @ @ @ # # # # # # # # # # # # # # # # # f+J+K+L+M+N+h+O+P+Q+R+S+T+$+@ % % % % # # # # $ $ $ $                 Z Z Z Z ",
"@ @ @ @ # # # # , , , , $ $ $ $ # # # # - - - - # # # # # # # # ; ; ; ; @ @ @ @ @ @ @ @         ` ` ` ` ; ; ; ; U+U+U+U++ + + + ",
"@ @ @ @ # # # # , , , , $ $ $ $ # # # # - - - - # # # # # # # # ; ; ; ; @ @ @ @ @ @ @ @         ` ` ` ` ; ; ; ; U+U+U+U++ + + + ",
"@ @ @ @ # # # # , , , , $ $ $ $ # # # # - - - - # # # # # # # # ; ; ; ; @ @ @ @ @ @ @ @         ` ` ` ` ; ; ; ; U+U+U+U++ + + + ",
"@ @ @ @ # # # # , , , , $ $ $ $ # # # # - - - - # # # # # # # # ; ; ; ; @ @ @ @ @ @ @ @         ` ` ` ` ; ; ; ; U+U+U+U++ + + + ",
"t t t t + + + + V+V+V+V+@ @ @ @         ` ` ` ` # # # # $ $ $ $ + + + + + + + + @ @ @ @ @ @ @ @ W+W+W+W++ + + + + + + + + + + + ",
"t t t t + + + + V+V+V+V+@ @ @ @         ` ` ` ` # # # # $ $ $ $ + + + + + + + + @ @ @ @ @ @ @ @ W+W+W+W++ + + + + + + + + + + + ",
"t t t t + + + + V+V+V+V+@ @ @ @         ` ` ` ` # # # # $ $ $ $ + + + + + + + + @ @ @ @ @ @ @ @ W+W+W+W++ + + + + + + + + + + + ",
"t t t t + + + + V+V+V+V+@ @ @ @         ` ` ` ` # # # # $ $ $ $ + + + + + + + + @ @ @ @ @ @ @ @ W+W+W+W++ + + + + + + + + + + + ",
"        . . . . + + + + X+X+X+X+t t t t . . . . @ @ @ @ @ @ @ @ @ @ @ @ @ @ @ @ @ @ @ @ @ @ @ @ @ @ @ @ + + + + + + + + = = = = ",
"        . . . . + + + + X+X+X+X+t t t t . . . . @ @ @ @ @ @ @ @ @ @ @ @ @ @ @ @ @ @ @ @ @ @ @ @ @ @ @ @ + + + + + + + + = = = = ",
"        . . . . + + + + X+X+X+X+t t t t . . . . @ @ @ @ @ @ @ @ @ @ @ @ @ @ @ @ @ @ @ @ @ @ @ @ @ @ @ @ + + + + + + + + = = = = ",
"        . . . . + + + + X+X+X+X+t t t t . . . . @ @ @ @ @ @ @ @ @ @ @ @ @ @ @ @ @ @ @ @ @ @ @ @ @ @ @ @ + + + + + + + + = = = = ",
"                . . . . + + + + + + + + Y+Y+Y+Y++ + + + @ @ @ @ @ @ @ @ @ @ @ @ @ @ @ @ @ @ @ @ @ @ @ @ @ @ @ @ @ @ @ @         ",
"                . . . . + + + + + + + + Y+Y+Y+Y++ + + + @ @ @ @ @ @ @ @ @ @ @ @ @ @ @ @ @ @ @ @ @ @ @ @ @ @ @ @ @ @ @ @         ",
"                . . . . + + + + + + + + Y+Y+Y+Y++ + + + @ @ @ @ @ @ @ @ @ @ @ @ @ @ @ @ @ @ @ @ @ @ @ @ @ @ @ @ @ @ @ @         ",
"                . . . . + + + + + + + + Y+Y+Y+Y++ + + + @ @ @ @ @ @ @ @ @ @ @ @ @ @ @ @ @ @ @ @ @ @ @ @ @ @ @ @ @ @ @ @         "};
