/* XPM */
static char * Pokeball_xpm[] = {
"64 64 513 2",
"  	c #5AD167",
". 	c #5AD067",
"+ 	c #55CB64",
"@ 	c #59CE67",
"# 	c #62D46C",
"$ 	c #61D46C",
"% 	c #5ACE67",
"& 	c #59CF67",
"* 	c #5AD066",
"= 	c #55CB65",
"- 	c #62D36C",
"; 	c #61D36B",
"> 	c #59CF68",
", 	c #62D36B",
"' 	c #66D46E",
") 	c #65D36D",
"! 	c #7FCA8A",
"~ 	c #4E7961",
"{ 	c #0D2727",
"] 	c #2A4141",
"^ 	c #2F4646",
"/ 	c #1C3333",
"( 	c #183131",
"_ 	c #70AA7E",
": 	c #68CE74",
"< 	c #54CB64",
"[ 	c #5ACC68",
"} 	c #71D578",
"| 	c #7ECC8A",
"1 	c #7BC98D",
"2 	c #79CC8A",
"3 	c #80A979",
"4 	c #6D543D",
"5 	c #590B0D",
"6 	c #632424",
"7 	c #652929",
"8 	c #652828",
"9 	c #601C1C",
"0 	c #611B1B",
"a 	c #7B8662",
"b 	c #80C089",
"c 	c #78CD8A",
"d 	c #7EC88D",
"e 	c #78CE84",
"f 	c #57CB65",
"g 	c #83D28B",
"h 	c #649673",
"i 	c #2D5D50",
"j 	c #417B63",
"k 	c #6B5840",
"l 	c #9C2011",
"m 	c #B80000",
"n 	c #AD0303",
"o 	c #AC0807",
"p 	c #AC0606",
"q 	c #B60101",
"r 	c #B90303",
"s 	c #8C422F",
"t 	c #5A6E56",
"u 	c #37715F",
"v 	c #406152",
"w 	c #7BB887",
"x 	c #63CD6F",
"y 	c #5BCC69",
"z 	c #70D67A",
"A 	c #7D966C",
"B 	c #5A2321",
"C 	c #3B0000",
"D 	c #50080D",
"E 	c #981C17",
"F 	c #DB2719",
"G 	c #FC2714",
"H 	c #EB0903",
"I 	c #E80000",
"J 	c #EA0304",
"K 	c #EB1405",
"L 	c #E21405",
"M 	c #A50000",
"N 	c #670808",
"O 	c #2E0303",
"P 	c #330101",
"Q 	c #616048",
"R 	c #81B381",
"S 	c #71CE7B",
"T 	c #5ECD6E",
"U 	c #83D38F",
"V 	c #669974",
"W 	c #5B2620",
"X 	c #970808",
"Y 	c #C20000",
"Z 	c #CB0A10",
"` 	c #E9473B",
" .	c #F77657",
"..	c #FB6148",
"+.	c #F0211F",
"@.	c #EF0A11",
"#.	c #F21D1D",
"$.	c #E01111",
"%.	c #CB0101",
"&.	c #B90000",
"*.	c #B40303",
"=.	c #9F0101",
"-.	c #8B0101",
";.	c #5E1515",
">.	c #4D4E3F",
",.	c #78BA89",
"'.	c #6ECE7A",
").	c #59CD66",
"!.	c #7FD090",
"~.	c #2F5D50",
"{.	c #3C0000",
"].	c #C30101",
"^.	c #FD2413",
"/.	c #FF3D2E",
"(.	c #FF9984",
"_.	c #FFD4BC",
":.	c #FFC4AC",
"<.	c #FF7664",
"[.	c #FE3A32",
"}.	c #FC2F2E",
"|.	c #EB181A",
"1.	c #D91212",
"2.	c #D40202",
"3.	c #DB0000",
"4.	c #D71405",
"5.	c #C51405",
"6.	c #630000",
"7.	c #180C0C",
"8.	c #62A37E",
"9.	c #68CD75",
"0.	c #7FD490",
"a.	c #447D64",
"b.	c #500C0E",
"c.	c #CD1315",
"d.	c #FF3C2C",
"e.	c #FF785A",
"f.	c #FED1B8",
"g.	c #FAF5F1",
"h.	c #FBEBE0",
"i.	c #FFAF90",
"j.	c #FC5E45",
"k.	c #F5322D",
"l.	c #F21419",
"m.	c #F01F20",
"n.	c #DE1212",
"o.	c #CD0303",
"p.	c #CB0000",
"q.	c #CE0000",
"r.	c #790505",
"s.	c #302323",
"t.	c #6BB287",
"u.	c #65CE74",
"v.	c #85D08D",
"w.	c #82AF7D",
"x.	c #685B42",
"y.	c #920A0B",
"z.	c #E31D1F",
"A.	c #FF3F34",
"B.	c #FE6850",
"C.	c #FBBDA5",
"D.	c #FAEADF",
"E.	c #FFDCCC",
"F.	c #FF987D",
"G.	c #FF4B38",
"H.	c #FF2A26",
"I.	c #FE1B1F",
"J.	c #FF2C2D",
"K.	c #E71D1D",
"L.	c #CB0606",
"M.	c #C90000",
"N.	c #D40000",
"O.	c #9E0202",
"P.	c #641414",
"Q.	c #6C8B66",
"R.	c #84BC86",
"S.	c #70CC7D",
"T.	c #517D63",
"U.	c #6F5B43",
"V.	c #992415",
"W.	c #D30303",
"X.	c #EB1C1D",
"Y.	c #FC2424",
"Z.	c #F42825",
"`.	c #F8705E",
" +	c #FDAF90",
".+	c #FF997E",
"++	c #FE493F",
"@+	c #FE191A",
"#+	c #FE201F",
"$+	c #FE2425",
"%+	c #FC2929",
"&+	c #E31A1A",
"*+	c #CB0505",
"=+	c #C30000",
"-+	c #CA0000",
";+	c #B40000",
">+	c #970202",
",+	c #6D422F",
"'+	c #5D6951",
")+	c #529968",
"!+	c #55CC64",
"~+	c #0B2626",
"{+	c #661616",
"]+	c #D70404",
"^+	c #FD2212",
"/+	c #F82320",
"(+	c #EE1B20",
"_+	c #EE0E15",
":+	c #FE322A",
"<+	c #FF5B42",
"[+	c #E64A37",
"}+	c #AE1717",
"|+	c #8F0C14",
"1+	c #A12324",
"2+	c #C72423",
"3+	c #E81616",
"4+	c #E80808",
"5+	c #CB0202",
"6+	c #C40000",
"7+	c #CA0101",
"8+	c #C91405",
"9+	c #BA1405",
"0+	c #6E0505",
"a+	c #321C1C",
"b+	c #2B7240",
"c+	c #233E3E",
"d+	c #7A2F2F",
"e+	c #E21E1E",
"f+	c #FF1D1A",
"g+	c #F82121",
"h+	c #EE2223",
"i+	c #F02021",
"j+	c #FF2624",
"k+	c #FF2E29",
"l+	c #C22D29",
"m+	c #5F2626",
"n+	c #222D2F",
"o+	c #3D3535",
"p+	c #832222",
"q+	c #C70606",
"r+	c #E50000",
"s+	c #C80000",
"t+	c #CC0000",
"u+	c #B00000",
"v+	c #711313",
"w+	c #463232",
"x+	c #357B50",
"y+	c #324141",
"z+	c #593535",
"A+	c #8F2727",
"B+	c #D71E1E",
"C+	c #F72020",
"D+	c #FF2120",
"E+	c #FF2121",
"F+	c #E81618",
"G+	c #C11216",
"H+	c #91484C",
"I+	c #7B8282",
"J+	c #509393",
"K+	c #407070",
"L+	c #513F3F",
"M+	c #7B1E1E",
"N+	c #B20000",
"O+	c #D80000",
"P+	c #C70000",
"Q+	c #A10000",
"R+	c #7F0808",
"S+	c #512525",
"T+	c #423939",
"U+	c #3C7B50",
"V+	c #5AD166",
"W+	c #5BD167",
"X+	c #3D4040",
"Y+	c #333838",
"Z+	c #332D2D",
"`+	c #8B2323",
" @	c #E92121",
".@	c #FF1D1D",
"+@	c #FF1E1E",
"@@	c #B91A1B",
"#@	c #622425",
"$@	c #798383",
"%@	c #D6DADA",
"&@	c #D9E5E5",
"*@	c #979F9F",
"=@	c #575F5F",
"-@	c #494343",
";@	c #7B1414",
">@	c #C40202",
",@	c #DD0000",
"'@	c #B70000",
")@	c #7B0C0C",
"!@	c #4F2525",
"~@	c #333B3B",
"{@	c #3D3D3D",
"]@	c #44784C",
"^@	c #262222",
"/@	c #425757",
"(@	c #678F8F",
"_@	c #907977",
":@	c #9D3030",
"<@	c #B30B0B",
"[@	c #B01919",
"}@	c #5D1515",
"|@	c #131D1D",
"1@	c #598282",
"2@	c #DAE2E2",
"3@	c #FEFBFB",
"4@	c #C0BCBC",
"5@	c #627878",
"6@	c #295151",
"7@	c #3B2020",
"8@	c #801414",
"9@	c #910202",
"0@	c #710606",
"a@	c #603936",
"b@	c #5C6665",
"c@	c #435E5E",
"d@	c #323737",
"e@	c #37703B",
"f@	c #151515",
"g@	c #757878",
"h@	c #DEE4E4",
"i@	c #CAC3C2",
"j@	c #604848",
"k@	c #300B0B",
"l@	c #452424",
"m@	c #302020",
"n@	c #202020",
"o@	c #555C5C",
"p@	c #9A9B9B",
"q@	c #C0BFBF",
"r@	c #AAA9A9",
"s@	c #717575",
"t@	c #3F4646",
"u@	c #2E2525",
"v@	c #452D2D",
"w@	c #432424",
"x@	c #3C2424",
"y@	c #645B59",
"z@	c #8A8B8A",
"A@	c #6E7373",
"B@	c #393939",
"C@	c #2F6E37",
"D@	c #71A675",
"E@	c #95AE94",
"F@	c #C8CCC7",
"G@	c #B8C3C3",
"H@	c #7F9999",
"I@	c #5C8181",
"J@	c #638585",
"K@	c #738686",
"L@	c #818585",
"M@	c #746F6F",
"N@	c #5A5959",
"O@	c #595959",
"P@	c #696969",
"Q@	c #6C6969",
"R@	c #605E5E",
"S@	c #525D5D",
"T@	c #4A6363",
"U@	c #446464",
"V@	c #496262",
"W@	c #626E6E",
"X@	c #797B7B",
"Y@	c #809180",
"Z@	c #779E7A",
"`@	c #69AF70",
" #	c #67CE72",
".#	c #83C189",
"+#	c #627964",
"@#	c #7A7B7B",
"##	c #CFD3D3",
"$#	c #F1F5F5",
"%#	c #DEE3E3",
"&#	c #E8EAEA",
"*#	c #EDEEEE",
"=#	c #A1A1A1",
"-#	c #4C4C4C",
";#	c #1C1C1C",
">#	c #363636",
",#	c #5C5C5C",
"'#	c #7C7C7C",
")#	c #8E9090",
"!#	c #848888",
"~#	c #878B8B",
"{#	c #898C8C",
"]#	c #636565",
"^#	c #454545",
"/#	c #76A479",
"(#	c #85D18B",
"_#	c #66D470",
":#	c #56CC64",
"<#	c #77C87F",
"[#	c #2F5132",
"}#	c #3B3B3B",
"|#	c #CCCCCC",
"1#	c #FEFEFE",
"2#	c #FFFFFF",
"3#	c #E5E5E5",
"4#	c #989898",
"5#	c #505050",
"6#	c #656565",
"7#	c #909090",
"8#	c #AAAAAA",
"9#	c #A4A4A4",
"0#	c #AFAFAF",
"a#	c #B0B0B0",
"b#	c #616161",
"c#	c #1D1D1D",
"d#	c #6CA370",
"e#	c #6BD474",
"f#	c #61D36C",
"g#	c #80C586",
"h#	c #405742",
"i#	c #303030",
"j#	c #8B8B8B",
"k#	c #E0E1E0",
"l#	c #FBFBFB",
"m#	c #F4F4F4",
"n#	c #BDBDBD",
"o#	c #8F8F8F",
"p#	c #7A7A7A",
"q#	c #8E8E8E",
"r#	c #979797",
"s#	c #9A9A9A",
"t#	c #A5A5A5",
"u#	c #606060",
"v#	c #252525",
"w#	c #6C9C6F",
"x#	c #7AD481",
"y#	c #7CD084",
"z#	c #7DB582",
"A#	c #596E5B",
"B#	c #515151",
"C#	c #676767",
"D#	c #949494",
"E#	c #C1C1C1",
"F#	c #D2D2D2",
"G#	c #F1F2F1",
"H#	c #F8F8F8",
"I#	c #DCDCDC",
"J#	c #989998",
"K#	c #9D9E9D",
"L#	c #848484",
"M#	c #6B6B6B",
"N#	c #5F5F5F",
"O#	c #656A65",
"P#	c #6D906F",
"Q#	c #85CB8A",
"R#	c #74D57C",
"S#	c #63D46D",
"T#	c #6FD577",
"U#	c #84BB87",
"V#	c #4C594D",
"W#	c #1A1A1A",
"X#	c #373737",
"Y#	c #6A6A6A",
"Z#	c #B7B8B7",
"`#	c #AEAEAE",
" $	c #A6A6A6",
".$	c #9D9D9D",
"+$	c #9FA09F",
"@$	c #767676",
"#$	c #444444",
"$$	c #1B1B1B",
"%$	c #242424",
"&$	c #6E9171",
"*$	c #84CD8A",
"=$	c #5BD168",
"-$	c #67D570",
";$	c #78D57F",
">$	c #7FB983",
",$	c #649767",
"'$	c #6BA66F",
")$	c #69916B",
"!$	c #636D64",
"~$	c #5E5E5E",
"{$	c #666666",
"]$	c #6D6D6D",
"^$	c #6F6F6F",
"/$	c #6E6E6E",
"($	c #728874",
"_$	c #75A379",
":$	c #6DA371",
"<$	c #83CA89",
"[$	c #61D26D",
"}$	c #6CD675",
"|$	c #79D680",
"1$	c #73D57A",
"2$	c #71D679",
"3$	c #88C38C",
"4$	c #5C745D",
"5$	c #484848",
"6$	c #3A3A3A",
"7$	c #78A17A",
"8$	c #6CD475",
"9$	c #75D67D",
"0$	c #66D56F",
"a$	c #7BD281",
"b$	c #549258",
"c$	c #327238",
"d$	c #3D7641",
"e$	c #3F7743",
"f$	c #36733B",
"g$	c #73B978",
"h$	c #64D36E",
"i$	c #62D26E",
"j$	c #59D167",
"k$	c #56CB64",
"l$	c #59D067",
"m$	c #54CA64",
"n$	c #55CB63",
"        . . . . + + + + + + + + + + + + + + + + + + + + . . . . @ @ @ @ @ @ @ @ @ @ @ @ # # # # $ $ $ $ @ @ @ @ % % % % # # # # ",
"        . . . . + + + + + + + + + + + + + + + + + + + + . . . . @ @ @ @ @ @ @ @ @ @ @ @ # # # # $ $ $ $ @ @ @ @ % % % % # # # # ",
"        . . . . + + + + + + + + + + + + + + + + + + + + . . . . @ @ @ @ @ @ @ @ @ @ @ @ # # # # $ $ $ $ @ @ @ @ % % % % # # # # ",
"        . . . . + + + + + + + + + + + + + + + + + + + + . . . . @ @ @ @ @ @ @ @ @ @ @ @ # # # # $ $ $ $ @ @ @ @ % % % % # # # # ",
"# # # # + + + + + + + +         + + + +                 & & & & @ @ @ @ @ @ @ @ # # # # # # # # # # # # # # # # $ $ $ $         ",
"# # # # + + + + + + + +         + + + +                 & & & & @ @ @ @ @ @ @ @ # # # # # # # # # # # # # # # # $ $ $ $         ",
"# # # # + + + + + + + +         + + + +                 & & & & @ @ @ @ @ @ @ @ # # # # # # # # # # # # # # # # $ $ $ $         ",
"# # # # + + + + + + + +         + + + +                 & & & & @ @ @ @ @ @ @ @ # # # # # # # # # # # # # # # # $ $ $ $         ",
"# # # # * * * * = = = = @ @ @ @ & & & &         # # # # - - - - @ @ @ @ # # # # # # # # # # # # # # # # # # # # $ $ $ $         ",
"# # # # * * * * = = = = @ @ @ @ & & & &         # # # # - - - - @ @ @ @ # # # # # # # # # # # # # # # # # # # # $ $ $ $         ",
"# # # # * * * * = = = = @ @ @ @ & & & &         # # # # - - - - @ @ @ @ # # # # # # # # # # # # # # # # # # # # $ $ $ $         ",
"# # # # * * * * = = = = @ @ @ @ & & & &         # # # # - - - - @ @ @ @ # # # # # # # # # # # # # # # # # # # # $ $ $ $         ",
"        @ @ @ @         % % % % # # # # ; ; ; ; # # # # $ $ $ $ @ @ @ @ # # # # # # # # # # # # # # # # # # # # # # # # $ $ $ $ ",
"        @ @ @ @         % % % % # # # # ; ; ; ; # # # # $ $ $ $ @ @ @ @ # # # # # # # # # # # # # # # # # # # # # # # # $ $ $ $ ",
"        @ @ @ @         % % % % # # # # ; ; ; ; # # # # $ $ $ $ @ @ @ @ # # # # # # # # # # # # # # # # # # # # # # # # $ $ $ $ ",
"        @ @ @ @         % % % % # # # # ; ; ; ; # # # # $ $ $ $ @ @ @ @ # # # # # # # # # # # # # # # # # # # # # # # # $ $ $ $ ",
"@ @ @ @ @ @ @ @ & & & & % % % % @ @ @ @ @ @ @ @ > > > > ; ; ; ; + + + + @ @ @ @ # # # # # # # # # # # # - - - - $ $ $ $         ",
"@ @ @ @ @ @ @ @ & & & & % % % % @ @ @ @ @ @ @ @ > > > > ; ; ; ; + + + + @ @ @ @ # # # # # # # # # # # # - - - - $ $ $ $         ",
"@ @ @ @ @ @ @ @ & & & & % % % % @ @ @ @ @ @ @ @ > > > > ; ; ; ; + + + + @ @ @ @ # # # # # # # # # # # # - - - - $ $ $ $         ",
"@ @ @ @ @ @ @ @ & & & & % % % % @ @ @ @ @ @ @ @ > > > > ; ; ; ; + + + + @ @ @ @ # # # # # # # # # # # # - - - - $ $ $ $         ",
"@ @ @ @ @ @ @ @ # # # # # # # # # # # # , ' ) , + + + ! ~ { ] ^ ^ / ( _ : < < < + [ + + @ @ @ @ # # # #         $ $ $ $ @ @ @ @ ",
"@ @ @ @ @ @ @ @ # # # # # # # # # # # # ) , , } | 1 2 3 4 5 6 7 8 9 0 a b c d e f + + [ @ @ @ @ # # # #         $ $ $ $ @ @ @ @ ",
"@ @ @ @ @ @ @ @ # # # # # # # # # # # # ) , , g h i j k l m n o p q r s t u v w x + + y @ @ @ @ # # # #         $ $ $ $ @ @ @ @ ",
"@ @ @ @ @ @ @ @ # # # # # # # # # # # # , z g A B C D E F G H I J K L M N O P Q R S T + @ @ @ @ # # # #         $ $ $ $ @ @ @ @ ",
"@ @ @ @ # # # # # # # # # # # # # # # # # U V W X Y Z `  ...+.@.#.$.%.&.*.=.-.;.>.,.'.+ + + + +                 @ @ @ @ ).).).).",
"@ @ @ @ # # # # # # # # # # # # # # # # # !.~.{.].^./.(._.:.<.[.}.|.1.2.3.4.5.6.7.8.9.+ + + + +                 @ @ @ @ ).).).).",
"@ @ @ @ # # # # # # # # # # # # # # # # # 0.a.b.c.d.e.f.g.h.i.j.k.l.m.n.o.p.q.r.s.t.u.+ + + + +                 @ @ @ @ ).).).).",
"@ @ @ @ # # # # # # # # # # # # # # # # v.w.x.y.z.A.B.C.D.E.F.G.H.I.J.K.L.M.N.O.P.Q.R.S.+ + + +                 @ @ @ @ ).).).).",
"        # # # # # # # # # # # # # # # # T.U.V.W.X.Y.Z.`. +.+++@+#+$+%+&+*+=+-+;+>+,+'+)++ + + + !+!+!+!+                + + + + ",
"        # # # # # # # # # # # # # # # # ~+{+]+^+/+(+_+:+<+[+}+|+1+2+3+4+5+6+7+8+9+0+a+b++ + + + !+!+!+!+                + + + + ",
"        # # # # # # # # # # # # # # # # c+d+e+f+g+h+i+j+k+l+m+n+o+p+q+r+-+s+t+=+u+v+w+x++ + + + !+!+!+!+                + + + + ",
"        # # # # # # # # # # # # # # # # y+z+A+B+C+D+E+F+G+H+I+J+K+L+M+N+p.O+P+Q+R+S+T+U++ + + + !+!+!+!+                + + + + ",
"V+V+V+V+W+W+W+W+# # # # # # # # # # # # X+Y+Z+`+ @.@+@@@#@$@%@&@*@=@-@;@>@,@'@)@!@~@{@]@+ + + + + + + + !+!+!+!+@ @ @ @ + + + + ",
"V+V+V+V+W+W+W+W+# # # # # # # # # # # # ^@/@(@_@:@<@[@}@|@1@2@3@4@5@6@7@8@9@0@a@b@c@d@e@+ + + + + + + + !+!+!+!+@ @ @ @ + + + + ",
"V+V+V+V+W+W+W+W+# # # # # # # # # # # # f@g@h@i@j@k@l@m@n@o@p@q@r@s@t@u@v@w@x@y@z@A@B@C@+ + + + + + + + !+!+!+!+@ @ @ @ + + + + ",
"V+V+V+V+W+W+W+W+# # # # # # # # # # # # D@E@F@G@H@I@J@K@L@M@N@O@P@Q@R@S@T@U@V@W@X@Y@Z@`@+ + + + + + + + !+!+!+!+@ @ @ @ + + + + ",
"+ + + +         # # # # # # # # $ $ $ $  #.#+#@###$#%#&#*#=#-#;#>#,#'#)#!#~#{#]#^#/#(#_#:#:#:#:#                . . . . + + + + ",
"+ + + +         # # # # # # # # $ $ $ $ @ <#[#}#|#1#2#2#2#3#4#5#-#6#7#8#9#0#a#b#c#d#e#f#:#:#:#:#                . . . . + + + + ",
"+ + + +         # # # # # # # # $ $ $ $ @ g#h#i#j#k#l#2#2#2#m#n#o#p#q#r#s#t#t#u#v#w#x#f#:#:#:#:#                . . . . + + + + ",
"+ + + +         # # # # # # # # $ $ $ $ @ y#z#A#B#C#D#E#F#G#H#I#a#J#K#L#M#O@N#O#P#Q#R#f#:#:#:#:#                . . . . + + + + ",
"+ + + + + + + + W+W+W+W+# # # # # # # # # S#T#U#V#W#X#Y#s#Z#`# $.$+$=#@$#$$$%$&$*$=$=$  # # # #                                 ",
"+ + + + + + + + W+W+W+W+# # # # # # # # -$# # ;$>$,$'$)$!$~$u#{$]$^$/$($_$:$w#<$=$    [$# # # #                                 ",
"+ + + + + + + + W+W+W+W+# # # # # # # # # # # }$|$1$2$3$4$i##$5$5$}#6$7$(#8$x#9$=$    =$# # # #                                 ",
"+ + + + + + + + W+W+W+W+# # # # # # # # # 0$0$# # # # a$b$c$d$e$e$f$f$g$h$f#f#f#  i$    # # # #                                 ",
"+ + + + @ @ @ @ # # # # # # # # # # # # # # # # # # # # # # # # $ $ $ $ @ @ @ @ % % % % # # # # $ $ $ $                 V+V+V+V+",
"+ + + + @ @ @ @ # # # # # # # # # # # # # # # # # # # # # # # # $ $ $ $ @ @ @ @ % % % % # # # # $ $ $ $                 V+V+V+V+",
"+ + + + @ @ @ @ # # # # # # # # # # # # # # # # # # # # # # # # $ $ $ $ @ @ @ @ % % % % # # # # $ $ $ $                 V+V+V+V+",
"+ + + + @ @ @ @ # # # # # # # # # # # # # # # # # # # # # # # # $ $ $ $ @ @ @ @ % % % % # # # # $ $ $ $                 V+V+V+V+",
"@ @ @ @ # # # # , , , , $ $ $ $ # # # # - - - - # # # # # # # # ; ; ; ; @ @ @ @ @ @ @ @         W+W+W+W+; ; ; ; j$j$j$j$+ + + + ",
"@ @ @ @ # # # # , , , , $ $ $ $ # # # # - - - - # # # # # # # # ; ; ; ; @ @ @ @ @ @ @ @         W+W+W+W+; ; ; ; j$j$j$j$+ + + + ",
"@ @ @ @ # # # # , , , , $ $ $ $ # # # # - - - - # # # # # # # # ; ; ; ; @ @ @ @ @ @ @ @         W+W+W+W+; ; ; ; j$j$j$j$+ + + + ",
"@ @ @ @ # # # # , , , , $ $ $ $ # # # # - - - - # # # # # # # # ; ; ; ; @ @ @ @ @ @ @ @         W+W+W+W+; ; ; ; j$j$j$j$+ + + + ",
"!+!+!+!++ + + + k$k$k$k$@ @ @ @         W+W+W+W+# # # # $ $ $ $ + + + + + + + + @ @ @ @ @ @ @ @ l$l$l$l$+ + + + + + + + + + + + ",
"!+!+!+!++ + + + k$k$k$k$@ @ @ @         W+W+W+W+# # # # $ $ $ $ + + + + + + + + @ @ @ @ @ @ @ @ l$l$l$l$+ + + + + + + + + + + + ",
"!+!+!+!++ + + + k$k$k$k$@ @ @ @         W+W+W+W+# # # # $ $ $ $ + + + + + + + + @ @ @ @ @ @ @ @ l$l$l$l$+ + + + + + + + + + + + ",
"!+!+!+!++ + + + k$k$k$k$@ @ @ @         W+W+W+W+# # # # $ $ $ $ + + + + + + + + @ @ @ @ @ @ @ @ l$l$l$l$+ + + + + + + + + + + + ",
"        . . . . + + + + m$m$m$m$!+!+!+!+. . . . @ @ @ @ @ @ @ @ @ @ @ @ @ @ @ @ @ @ @ @ @ @ @ @ @ @ @ @ + + + + + + + + = = = = ",
"        . . . . + + + + m$m$m$m$!+!+!+!+. . . . @ @ @ @ @ @ @ @ @ @ @ @ @ @ @ @ @ @ @ @ @ @ @ @ @ @ @ @ + + + + + + + + = = = = ",
"        . . . . + + + + m$m$m$m$!+!+!+!+. . . . @ @ @ @ @ @ @ @ @ @ @ @ @ @ @ @ @ @ @ @ @ @ @ @ @ @ @ @ + + + + + + + + = = = = ",
"        . . . . + + + + m$m$m$m$!+!+!+!+. . . . @ @ @ @ @ @ @ @ @ @ @ @ @ @ @ @ @ @ @ @ @ @ @ @ @ @ @ @ + + + + + + + + = = = = ",
"                . . . . + + + + + + + + n$n$n$n$+ + + + @ @ @ @ @ @ @ @ @ @ @ @ @ @ @ @ @ @ @ @ @ @ @ @ @ @ @ @ @ @ @ @         ",
"                . . . . + + + + + + + + n$n$n$n$+ + + + @ @ @ @ @ @ @ @ @ @ @ @ @ @ @ @ @ @ @ @ @ @ @ @ @ @ @ @ @ @ @ @         ",
"                . . . . + + + + + + + + n$n$n$n$+ + + + @ @ @ @ @ @ @ @ @ @ @ @ @ @ @ @ @ @ @ @ @ @ @ @ @ @ @ @ @ @ @ @         ",
"                . . . . + + + + + + + + n$n$n$n$+ + + + @ @ @ @ @ @ @ @ @ @ @ @ @ @ @ @ @ @ @ @ @ @ @ @ @ @ @ @ @ @ @ @         "};
