/* XPM */
static char * Pokeball_03_Frame01_xpm[] = {
"64 64 328 2",
"  	c #5AD167",
". 	c #5AD067",
"+ 	c #55CB64",
"@ 	c #59CE67",
"# 	c #62D46C",
"$ 	c #61D46C",
"% 	c #5ACE67",
"& 	c #59CF67",
"* 	c #5AD066",
"= 	c #55CB65",
"- 	c #62D36C",
"; 	c #61D36B",
"> 	c #59CF68",
", 	c #62D36B",
"' 	c #54CB64",
") 	c #56C864",
"! 	c #52C461",
"~ 	c #59CD66",
"{ 	c #60CE69",
"] 	c #70627F",
"^ 	c #725A83",
"/ 	c #715C81",
"( 	c #705B81",
"_ 	c #725A82",
": 	c #6F6180",
"< 	c #53C561",
"[ 	c #5FCD69",
"} 	c #5ECA67",
"| 	c #745B87",
"1 	c #784F8A",
"2 	c #774F89",
"3 	c #774F8A",
"4 	c #735C85",
"5 	c #51C260",
"6 	c #53C661",
"7 	c #60CF69",
"8 	c #8C6651",
"9 	c #905F52",
"0 	c #705D81",
"a 	c #735D87",
"b 	c #D37DF4",
"c 	c #D67EF8",
"d 	c #D57FF8",
"e 	c #D57EF6",
"f 	c #BA5BE3",
"g 	c #B65DE0",
"h 	c #715C85",
"i 	c #705C81",
"j 	c #8F5D50",
"k 	c #8B6450",
"l 	c #5FCE69",
"m 	c #5ECB67",
"n 	c #935E50",
"o 	c #965151",
"p 	c #784F84",
"q 	c #7A4F8A",
"r 	c #D682F8",
"s 	c #D984FE",
"t 	c #D781FE",
"u 	c #D881FE",
"v 	c #D780FD",
"w 	c #BC5DE6",
"x 	c #BA5CE4",
"y 	c #784E88",
"z 	c #784E83",
"A 	c #975251",
"B 	c #915E50",
"C 	c #51C25F",
"D 	c #55CC64",
"E 	c #926151",
"F 	c #E8544C",
"G 	c #EB554E",
"H 	c #FB7F79",
"I 	c #FC847E",
"J 	c #F6F1F3",
"K 	c #F5F1F6",
"L 	c #D781FD",
"M 	c #D67EFD",
"N 	c #D67FFD",
"O 	c #D680FE",
"P 	c #D780F4",
"Q 	c #E95451",
"R 	c #E9544C",
"S 	c #EA544D",
"T 	c #E8574D",
"U 	c #915D4F",
"V 	c #905E51",
"W 	c #EA544C",
"X 	c #EE554D",
"Y 	c #FF7F78",
"Z 	c #FF847D",
"` 	c #F5F0F6",
" .	c #D885FC",
"..	c #D782FD",
"+.	c #D783FD",
"@.	c #D783FC",
"#.	c #D681FD",
"$.	c #D77FF3",
"%.	c #EC554F",
"&.	c #ED544B",
"*.	c #ED544C",
"=.	c #965350",
"-.	c #8E5F51",
";.	c #735E84",
">.	c #794F85",
",.	c #ED554B",
"'.	c #EC5650",
").	c #D782F4",
"!.	c #D886FD",
"~.	c #F6F4FB",
"{.	c #F7F7FB",
"].	c #F6F8FC",
"^.	c #F5F3FB",
"/.	c #BB5FE6",
"(.	c #BB5BE1",
"_.	c #EC544E",
":.	c #ED544A",
"<.	c #EE544B",
"[.	c #E9544D",
"}.	c #794F86",
"|.	c #715C82",
"1.	c #5AD166",
"2.	c #5BD167",
"3.	c #6E5C82",
"4.	c #754C83",
"5.	c #E95450",
"6.	c #EB534E",
"7.	c #EA5554",
"8.	c #D67CF5",
"9.	c #F1F2F4",
"0.	c #F2F5F5",
"a.	c #F0F1F4",
"b.	c #BA5FE5",
"c.	c #BA5AE0",
"d.	c #EA5453",
"e.	c #EB544F",
"f.	c #EC544F",
"g.	c #E85350",
"h.	c #754D84",
"i.	c #6E5A80",
"j.	c #183A1B",
"k.	c #0E0811",
"l.	c #B95ADD",
"m.	c #BD5CE4",
"n.	c #BC5CE1",
"o.	c #BB5CE1",
"p.	c #BD5DE7",
"q.	c #B95CE2",
"r.	c #4A4840",
"s.	c #46473C",
"t.	c #48493E",
"u.	c #4A4942",
"v.	c #BA5CE3",
"w.	c #BE5DE4",
"x.	c #B85ADE",
"y.	c #100814",
"z.	c #15371A",
"A.	c #52C561",
"B.	c #153918",
"C.	c #0D0610",
"D.	c #B45ADD",
"E.	c #B95CE4",
"F.	c #BA5BE5",
"G.	c #B95BE2",
"H.	c #B65ADD",
"I.	c #4A4742",
"J.	c #47473C",
"K.	c #44453A",
"L.	c #48453F",
"M.	c #B55ADD",
"N.	c #B85AE1",
"O.	c #B95CE3",
"P.	c #B459DD",
"Q.	c #0B050F",
"R.	c #113616",
"S.	c #050404",
"T.	c #44423B",
"U.	c #494641",
"V.	c #494541",
"W.	c #4A4B42",
"X.	c #EDEEED",
"Y.	c #F0F0F0",
"Z.	c #9899A1",
"`.	c #93929B",
" +	c #100D13",
".+	c #130917",
"++	c #B95AE3",
"@+	c #4A4642",
"#+	c #45443B",
"$+	c #040404",
"%+	c #123717",
"&+	c #050505",
"*+	c #46483B",
"=+	c #4B4A43",
"-+	c #B75BDE",
";+	c #B65BDF",
">+	c #43423B",
",+	c #46483C",
"'+	c #F2F2F3",
")+	c #9B9BA3",
"!+	c #94949D",
"~+	c #080A09",
"{+	c #B75BDF",
"]+	c #494840",
"^+	c #45453A",
"/+	c #5ECD69",
"(+	c #61D36C",
"_+	c #56CC64",
":+	c #131313",
"<+	c #ECECEC",
"[+	c #EEEEEE",
"}+	c #4A4841",
"|+	c #43413A",
"1+	c #070605",
"2+	c #0A0A09",
"3+	c #9898A0",
"4+	c #9C9CA4",
"5+	c #9A9AA2",
"6+	c #95959E",
"7+	c #0A0A0A",
"8+	c #040304",
"9+	c #45433D",
"0+	c #494841",
"a+	c #97979F",
"b+	c #95959D",
"c+	c #133516",
"d+	c #19461E",
"e+	c #1B381E",
"f+	c #EAEAEA",
"g+	c #EBEBEB",
"h+	c #4C4D42",
"i+	c #45463B",
"j+	c #151515",
"k+	c #141415",
"l+	c #919199",
"m+	c #96969E",
"n+	c #92929A",
"o+	c #0F0F10",
"p+	c #090909",
"q+	c #494A3F",
"r+	c #94949C",
"s+	c #93939C",
"t+	c #1A3B1D",
"u+	c #1C4720",
"v+	c #59CD67",
"w+	c #57C964",
"x+	c #55C663",
"y+	c #1B391E",
"z+	c #1D1D1C",
"A+	c #F2F2F2",
"B+	c #171718",
"C+	c #09090A",
"D+	c #0F0F11",
"E+	c #96969F",
"F+	c #18391C",
"G+	c #5DCA67",
"H+	c #6AC671",
"I+	c #1A3C1D",
"J+	c #1B301D",
"K+	c #F1F1F0",
"L+	c #F6F6F6",
"M+	c #EDEDED",
"N+	c #080809",
"O+	c #101011",
"P+	c #9999A1",
"Q+	c #93939B",
"R+	c #142F17",
"S+	c #1B3E1F",
"T+	c #64C36E",
"U+	c #59D066",
"V+	c #6CCA74",
"W+	c #52B25A",
"X+	c #51B159",
"Y+	c #4FAF58",
"Z+	c #1A321C",
"`+	c #181818",
" @	c #9B9BA4",
".@	c #152F17",
"+@	c #4FAE58",
"@@	c #50B059",
"#@	c #4BB056",
"$@	c #65C76F",
"%@	c #61D26B",
"&@	c #56B55E",
"*@	c #52B35A",
"=@	c #152F18",
"-@	c #163B19",
";@	c #51B25A",
">@	c #4AAF55",
",@	c #4FB25A",
"'@	c #59CF66",
")@	c #0A0A0B",
"!@	c #50B15A",
"~@	c #50B25A",
"{@	c #6BCA73",
"]@	c #0F2D12",
"^@	c #49AC55",
"/@	c #4AAE56",
"(@	c #49AD55",
"_@	c #4BAD56",
":@	c #66C56F",
"<@	c #5ACD67",
"[@	c #6AC672",
"}@	c #51B15A",
"|@	c #4AAC55",
"1@	c #4BAE56",
"2@	c #65C16E",
"3@	c #6AD073",
"4@	c #61BC69",
"5@	c #4AAD56",
"6@	c #5CB866",
"7@	c #63CB6F",
"8@	c #67D370",
"9@	c #6DCD74",
"0@	c #68C36F",
"a@	c #5CB864",
"b@	c #54B45C",
"c@	c #51B35A",
"d@	c #53B45C",
"e@	c #5BB864",
"f@	c #65C26D",
"g@	c #66C770",
"h@	c #5FCD6B",
"i@	c #59D167",
"j@	c #56CB64",
"k@	c #59D067",
"l@	c #54CA64",
"m@	c #55CB63",
"        . . . . + + + + + + + + + + + + + + + + + + + + . . . . @ @ @ @ @ @ @ @ @ @ @ @ # # # # $ $ $ $ @ @ @ @ % % % % # # # # ",
"        . . . . + + + + + + + + + + + + + + + + + + + + . . . . @ @ @ @ @ @ @ @ @ @ @ @ # # # # $ $ $ $ @ @ @ @ % % % % # # # # ",
"        . . . . + + + + + + + + + + + + + + + + + + + + . . . . @ @ @ @ @ @ @ @ @ @ @ @ # # # # $ $ $ $ @ @ @ @ % % % % # # # # ",
"        . . . . + + + + + + + + + + + + + + + + + + + + . . . . @ @ @ @ @ @ @ @ @ @ @ @ # # # # $ $ $ $ @ @ @ @ % % % % # # # # ",
"# # # # + + + + + + + +         + + + +                 & & & & @ @ @ @ @ @ @ @ # # # # # # # # # # # # # # # # $ $ $ $         ",
"# # # # + + + + + + + +         + + + +                 & & & & @ @ @ @ @ @ @ @ # # # # # # # # # # # # # # # # $ $ $ $         ",
"# # # # + + + + + + + +         + + + +                 & & & & @ @ @ @ @ @ @ @ # # # # # # # # # # # # # # # # $ $ $ $         ",
"# # # # + + + + + + + +         + + + +                 & & & & @ @ @ @ @ @ @ @ # # # # # # # # # # # # # # # # $ $ $ $         ",
"# # # # * * * * = = = = @ @ @ @ & & & &         # # # # - - - - @ @ @ @ # # # # # # # # # # # # # # # # # # # # $ $ $ $         ",
"# # # # * * * * = = = = @ @ @ @ & & & &         # # # # - - - - @ @ @ @ # # # # # # # # # # # # # # # # # # # # $ $ $ $         ",
"# # # # * * * * = = = = @ @ @ @ & & & &         # # # # - - - - @ @ @ @ # # # # # # # # # # # # # # # # # # # # $ $ $ $         ",
"# # # # * * * * = = = = @ @ @ @ & & & &         # # # # - - - - @ @ @ @ # # # # # # # # # # # # # # # # # # # # $ $ $ $         ",
"        @ @ @ @         % % % % # # # # ; ; ; ; # # # # $ $ $ $ @ @ @ @ # # # # # # # # # # # # # # # # # # # # # # # # $ $ $ $ ",
"        @ @ @ @         % % % % # # # # ; ; ; ; # # # # $ $ $ $ @ @ @ @ # # # # # # # # # # # # # # # # # # # # # # # # $ $ $ $ ",
"        @ @ @ @         % % % % # # # # ; ; ; ; # # # # $ $ $ $ @ @ @ @ # # # # # # # # # # # # # # # # # # # # # # # # $ $ $ $ ",
"        @ @ @ @         % % % % # # # # ; ; ; ; # # # # $ $ $ $ @ @ @ @ # # # # # # # # # # # # # # # # # # # # # # # # $ $ $ $ ",
"@ @ @ @ @ @ @ @ & & & & % % % % @ @ @ @ @ @ @ @ > > > > ; ; ; ; + + + + @ @ @ @ # # # # # # # # # # # # - - - - $ $ $ $         ",
"@ @ @ @ @ @ @ @ & & & & % % % % @ @ @ @ @ @ @ @ > > > > ; ; ; ; + + + + @ @ @ @ # # # # # # # # # # # # - - - - $ $ $ $         ",
"@ @ @ @ @ @ @ @ & & & & % % % % @ @ @ @ @ @ @ @ > > > > ; ; ; ; + + + + @ @ @ @ # # # # # # # # # # # # - - - - $ $ $ $         ",
"@ @ @ @ @ @ @ @ & & & & % % % % @ @ @ @ @ @ @ @ > > > > ; ; ; ; + + + + @ @ @ @ # # # # # # # # # # # # - - - - $ $ $ $         ",
"@ @ @ @ @ @ @ @ # # # # # # # # # # # # , , , , + + + + + + + + + + + + ' ' ' ' + + + + @ @ @ @ # # # #         $ $ $ $ @ @ @ @ ",
"@ @ @ @ @ @ @ @ # # # # # # # # # # # # , , , , + + + + + + + + + + + + ' ' ' ' + + + + @ @ @ @ # # # #         $ $ $ $ @ @ @ @ ",
"@ @ @ @ @ @ @ @ # # # # # # # # # # # # , , , , + + + + + + + + + + + + ' ' ' ' + + + + @ @ @ @ # # # #         $ $ $ $ @ @ @ @ ",
"@ @ @ @ @ @ @ @ # # # # # # # # # # # # , , , , + + + + + + + + + + + + ' ' ' ' + + + + @ @ @ @ # # # #         $ $ $ $ @ @ @ @ ",
"@ @ @ @ # # # # # # # # # # # # # # # # # # # # - - - - ) ) ) ) ! ! ! ! + + + + + + + + + + + +                 @ @ @ @ ~ ~ ~ ~ ",
"@ @ @ @ # # # # # # # # # # # # # # # # # # # # - - - { ] ^ / / ( ( _ : < + + + + + + + + + + +                 @ @ @ @ ~ ~ ~ ~ ",
"@ @ @ @ # # # # # # # # # # # # # # # # # # # # [ [ [ } | 1 2 2 2 2 3 4 5 6 < < + + + + + + + +                 @ @ @ @ ~ ~ ~ ~ ",
"@ @ @ @ # # # # # # # # # # # # # # # # # # # 7 8 9 0 a b c d d d e f g h i j k < + + + + + + +                 @ @ @ @ ~ ~ ~ ~ ",
"        # # # # # # # # # # # # # # # # # # l m n o p q r s t u u v w x y z A B C 6 + + + + + + D D D D                 + + + + ",
"        # # # # # # # # # # # # # # # # # l 8 E F G H I J K L M N N O P Q R S T U k < + + + + + D D D D                 + + + + ",
"        # # # # # # # # # # # # # # # # # l V A W X Y Z J `  ...+.@.#.$.%.&.*.W =.-.< + + + + + D D D D                 + + + + ",
"        # # # # # # # # # # # # # # # # # l ;.>.W &.,.'.).!.~.{.].^./.(._.:.<.[.}.|.< + + + + + D D D D                 + + + + ",
"1.1.1.1.2.2.2.2.# # # # # # # # # # # # # l 3.4.5.%.6.7.8.#.9.0.0.a.b.c.d.e.f.g.h.i.< + + + + + + + + + D D D D @ @ @ @ + + + + ",
"1.1.1.1.2.2.2.2.# # # # # # # # # # # # # l j.k.l.m.n.o.p.q.r.s.t.u.v.w o.o.w.x.y.z.A.+ + + + + + + + + D D D D @ @ @ @ + + + + ",
"1.1.1.1.2.2.2.2.# # # # # # # # # # # # # l B.C.D.E.x F.G.H.I.J.K.L.M.N.x F.O.P.Q.R.A.+ + + + + + + + + D D D D @ @ @ @ + + + + ",
"1.1.1.1.2.2.2.2.# # # # # # # # # # # # # l B.S.T.U.x f V.W.X.Y.Z.`. +.+++f @+#+$+R.A.+ + + + + + + + + D D D D @ @ @ @ + + + + ",
"+ + + +         # # # # # # # # $ $ $ $ @ ) %+&+*+=+-+;+>+,+Y.'+)+!+~+C.H.{+]+^+$+B./+(+_+_+_+_+                . . . . + + + + ",
"+ + + +         # # # # # # # # $ $ $ $ @ ) %+:+<+[+}+|+1+2+3+4+5+6+7+8+9+0+a+b+7+c+/+(+_+_+_+_+                . . . . + + + + ",
"+ + + +         # # # # # # # # $ $ $ $ @ ) d+e+f+g+h+i+j+k+l+!+m+n+o+p+^+q+r+s+t+u+/+(+_+_+_+_+                . . . . + + + + ",
"+ + + +         # # # # # # # # $ $ $ $ @ v+w+x+y+z+<+A+Y.f+B+C+C+D+n+E+3+r+o+F+G+/+(+(+_+_+_+_+                . . . . + + + + ",
"+ + + + + + + + 2.2.2.2.# # # # # # # # # # - H+I+J+f+K+L+M+k+N+7+O+E+P+a+Q+R+S+T+U+    # # # #                                 ",
"+ + + + + + + + 2.2.2.2.# # # # # # # # # ; V+W+X+Y+Z+`+3+ @m+m+m+6+5+6+o+.@+@@@#@$@U+  # # # #                                 ",
"+ + + + + + + + 2.2.2.2.# # # # # # # # # %@&@X+*@X+B.=@n+b+6+6+6+6+m+n+R+-@@@;@>@,@'@  # # # #                                 ",
"+ + + + + + + + 2.2.2.2.# # # # # # # # # %@&@X+;@X+X+Y+.@)@)@)@)@)@)@.@+@@@!@!@>@~@U+  # # # #                                 ",
"+ + + + @ @ @ @ # # # # # # # # # # # # # ; {@*@X+;@*@X+B.]@]@]@]@]@]@-@^@/@(@^@_@:@<@% # # # # $ $ $ $                 1.1.1.1.",
"+ + + + @ @ @ @ # # # # # # # # # # # # # # , [@*@}@X+X+@@@@@@@@@@@@@@@@(@^@|@1@2@<@% % # # # # $ $ $ $                 1.1.1.1.",
"+ + + + @ @ @ @ # # # # # # # # # # # # # # # ; 3@4@*@W+W+W+;@;@;@;@;@;@5@5@6@7@<@% % % # # # # $ $ $ $                 1.1.1.1.",
"+ + + + @ @ @ @ # # # # # # # # # # # # # # # # # %@8@9@0@a@b@*@c@d@e@f@g@h@v+@ % % % % # # # # $ $ $ $                 1.1.1.1.",
"@ @ @ @ # # # # , , , , $ $ $ $ # # # # - - - - # # # # # # # # ; ; ; ; @ @ @ @ @ @ @ @         2.2.2.2.; ; ; ; i@i@i@i@+ + + + ",
"@ @ @ @ # # # # , , , , $ $ $ $ # # # # - - - - # # # # # # # # ; ; ; ; @ @ @ @ @ @ @ @         2.2.2.2.; ; ; ; i@i@i@i@+ + + + ",
"@ @ @ @ # # # # , , , , $ $ $ $ # # # # - - - - # # # # # # # # ; ; ; ; @ @ @ @ @ @ @ @         2.2.2.2.; ; ; ; i@i@i@i@+ + + + ",
"@ @ @ @ # # # # , , , , $ $ $ $ # # # # - - - - # # # # # # # # ; ; ; ; @ @ @ @ @ @ @ @         2.2.2.2.; ; ; ; i@i@i@i@+ + + + ",
"D D D D + + + + j@j@j@j@@ @ @ @         2.2.2.2.# # # # $ $ $ $ + + + + + + + + @ @ @ @ @ @ @ @ k@k@k@k@+ + + + + + + + + + + + ",
"D D D D + + + + j@j@j@j@@ @ @ @         2.2.2.2.# # # # $ $ $ $ + + + + + + + + @ @ @ @ @ @ @ @ k@k@k@k@+ + + + + + + + + + + + ",
"D D D D + + + + j@j@j@j@@ @ @ @         2.2.2.2.# # # # $ $ $ $ + + + + + + + + @ @ @ @ @ @ @ @ k@k@k@k@+ + + + + + + + + + + + ",
"D D D D + + + + j@j@j@j@@ @ @ @         2.2.2.2.# # # # $ $ $ $ + + + + + + + + @ @ @ @ @ @ @ @ k@k@k@k@+ + + + + + + + + + + + ",
"        . . . . + + + + l@l@l@l@D D D D . . . . @ @ @ @ @ @ @ @ @ @ @ @ @ @ @ @ @ @ @ @ @ @ @ @ @ @ @ @ + + + + + + + + = = = = ",
"        . . . . + + + + l@l@l@l@D D D D . . . . @ @ @ @ @ @ @ @ @ @ @ @ @ @ @ @ @ @ @ @ @ @ @ @ @ @ @ @ + + + + + + + + = = = = ",
"        . . . . + + + + l@l@l@l@D D D D . . . . @ @ @ @ @ @ @ @ @ @ @ @ @ @ @ @ @ @ @ @ @ @ @ @ @ @ @ @ + + + + + + + + = = = = ",
"        . . . . + + + + l@l@l@l@D D D D . . . . @ @ @ @ @ @ @ @ @ @ @ @ @ @ @ @ @ @ @ @ @ @ @ @ @ @ @ @ + + + + + + + + = = = = ",
"                . . . . + + + + + + + + m@m@m@m@+ + + + @ @ @ @ @ @ @ @ @ @ @ @ @ @ @ @ @ @ @ @ @ @ @ @ @ @ @ @ @ @ @ @         ",
"                . . . . + + + + + + + + m@m@m@m@+ + + + @ @ @ @ @ @ @ @ @ @ @ @ @ @ @ @ @ @ @ @ @ @ @ @ @ @ @ @ @ @ @ @         ",
"                . . . . + + + + + + + + m@m@m@m@+ + + + @ @ @ @ @ @ @ @ @ @ @ @ @ @ @ @ @ @ @ @ @ @ @ @ @ @ @ @ @ @ @ @         ",
"                . . . . + + + + + + + + m@m@m@m@+ + + + @ @ @ @ @ @ @ @ @ @ @ @ @ @ @ @ @ @ @ @ @ @ @ @ @ @ @ @ @ @ @ @         "};
