/* XPM */
static char * Tree_xpm[] = {
"64 64 691 2",
"  	c #5AD167",
". 	c #5AD067",
"+ 	c #55CB64",
"@ 	c #59CE67",
"# 	c #62D46C",
"$ 	c #61D46C",
"% 	c #5ACE67",
"& 	c #59CB6D",
"* 	c #5AC870",
"= 	c #16895A",
"- 	c #00A351",
"; 	c #178A5A",
"> 	c #58C670",
", 	c #58C96C",
"' 	c #55C66B",
") 	c #54C36F",
"! 	c #1D8B5C",
"~ 	c #178A59",
"{ 	c #02A352",
"] 	c #00D664",
"^ 	c #00D563",
"/ 	c #03A353",
"( 	c #15895A",
"_ 	c #1E8B5B",
": 	c #57C570",
"< 	c #58C96D",
"[ 	c #58C86C",
"} 	c #57CB65",
"| 	c #55C36E",
"1 	c #1BA656",
"2 	c #14A454",
"3 	c #148A5A",
"4 	c #00C256",
"5 	c #00D764",
"6 	c #00D864",
"7 	c #00D763",
"8 	c #00C156",
"9 	c #01A151",
"0 	c #13A553",
"a 	c #1CA655",
"b 	c #59CC6D",
"c 	c #1DA656",
"d 	c #02C556",
"e 	c #00D863",
"f 	c #00D663",
"g 	c #00C157",
"h 	c #00C458",
"i 	c #00D765",
"j 	c #00C258",
"k 	c #00A452",
"l 	c #00C456",
"m 	c #01C455",
"n 	c #1CA556",
"o 	c #61CE72",
"p 	c #59C870",
"q 	c #13A654",
"r 	c #00D762",
"s 	c #00C358",
"t 	c #00C257",
"u 	c #16A654",
"v 	c #60CB74",
"w 	c #59C971",
"x 	c #1C8E5A",
"y 	c #02D663",
"z 	c #00A552",
"A 	c #00D464",
"B 	c #01C155",
"C 	c #208F5C",
"D 	c #61CF73",
"E 	c #1C8B5B",
"F 	c #168B58",
"G 	c #02C056",
"H 	c #00A553",
"I 	c #00C158",
"J 	c #02BF55",
"K 	c #168B5A",
"L 	c #1F8C5C",
"M 	c #5AD066",
"N 	c #55CB65",
"O 	c #59CF67",
"P 	c #5BCF68",
"Q 	c #59C771",
"R 	c #1CA756",
"S 	c #02C456",
"T 	c #00BF57",
"U 	c #00BF56",
"V 	c #02C355",
"W 	c #1FA857",
"X 	c #60CB73",
"Y 	c #59C96D",
"Z 	c #1DA756",
"` 	c #02C455",
" .	c #00C057",
"..	c #008858",
"+.	c #008758",
"@.	c #1FA757",
"#.	c #58CA6D",
"$.	c #12A552",
"%.	c #008559",
"&.	c #00D964",
"*.	c #00D364",
"=.	c #16A653",
"-.	c #1E8D5B",
";.	c #01BE57",
">.	c #00596E",
",.	c #00D564",
"'.	c #00596F",
").	c #03BD56",
"!.	c #218F5D",
"~.	c #61CE70",
"{.	c #61CC74",
"].	c #17895A",
"^.	c #005C6D",
"/.	c #00BC58",
"(.	c #008657",
"_.	c #00A453",
":.	c #00D865",
"<.	c #00BB58",
"[.	c #18885C",
"}.	c #61CC73",
"|.	c #63D46D",
"1.	c #61CB75",
"2.	c #206E6F",
"3.	c #03C156",
"4.	c #005D6D",
"5.	c #00BE58",
"6.	c #00BE59",
"7.	c #005D6E",
"8.	c #02C156",
"9.	c #216F70",
"0.	c #62CE74",
"a.	c #206D70",
"b.	c #005E6E",
"c.	c #00D164",
"d.	c #1F6B6F",
"e.	c #61CE74",
"f.	c #15646D",
"g.	c #00BE57",
"h.	c #005C6E",
"i.	c #00C357",
"j.	c #00D165",
"k.	c #16666E",
"l.	c #58C86D",
"m.	c #1E6C6F",
"n.	c #019E53",
"o.	c #00586E",
"p.	c #00576E",
"q.	c #039E53",
"r.	c #216E70",
"s.	c #62D36C",
"t.	c #59C770",
"u.	c #15636E",
"v.	c #00596D",
"w.	c #00D463",
"x.	c #00A352",
"y.	c #00A252",
"z.	c #00C457",
"A.	c #00BD59",
"B.	c #18646F",
"C.	c #5BCE68",
"D.	c #59C671",
"E.	c #1D8C5B",
"F.	c #02A251",
"G.	c #00BD58",
"H.	c #009F54",
"I.	c #00A053",
"J.	c #008558",
"K.	c #008458",
"L.	c #009F53",
"M.	c #009E53",
"N.	c #02A351",
"O.	c #218E5D",
"P.	c #1D8B5B",
"Q.	c #02A451",
"R.	c #00A153",
"S.	c #1F8B5B",
"T.	c #61CB74",
"U.	c #158A58",
"V.	c #00BF58",
"W.	c #00A054",
"X.	c #168A58",
"Y.	c #1F8C5B",
"Z.	c #03C155",
"`.	c #008059",
" +	c #01C156",
".+	c #62CF74",
"++	c #16656D",
"@+	c #00C058",
"#+	c #005B6D",
"$+	c #00C356",
"%+	c #16646F",
"&+	c #61CB76",
"*+	c #195863",
"=+	c #019F52",
"-+	c #005A6D",
";+	c #005A6E",
">+	c #00A152",
",+	c #175864",
"'+	c #1F6C6F",
")+	c #027F57",
"!+	c #044762",
"~+	c #00556E",
"{+	c #008258",
"]+	c #008357",
"^+	c #008159",
"/+	c #00566E",
"(+	c #044761",
"_+	c #017E58",
":+	c #1D6D6E",
"<+	c #58C870",
"[+	c #59CD66",
"}+	c #1F6C6E",
"|+	c #03A151",
"1+	c #008557",
"2+	c #007F59",
"3+	c #008358",
"4+	c #008058",
"5+	c #008457",
"6+	c #01A052",
"7+	c #1C6B6D",
"8+	c #206B6F",
"9+	c #00A052",
"0+	c #1C696E",
"a+	c #165661",
"b+	c #00A251",
"c+	c #01586D",
"d+	c #155762",
"e+	c #61CE71",
"f+	c #205F64",
"g+	c #02A050",
"h+	c #018158",
"i+	c #009F52",
"j+	c #044462",
"k+	c #008257",
"l+	c #01A051",
"m+	c #1C5E64",
"n+	c #55C669",
"o+	c #226464",
"p+	c #027E56",
"q+	c #044961",
"r+	c #044662",
"s+	c #017F59",
"t+	c #00A254",
"u+	c #01576E",
"v+	c #01596E",
"w+	c #034661",
"x+	c #008158",
"y+	c #044962",
"z+	c #027D56",
"A+	c #1D6165",
"B+	c #54C46D",
"C+	c #57CC65",
"D+	c #18542F",
"E+	c #009F50",
"F+	c #018058",
"G+	c #01A152",
"H+	c #019D53",
"I+	c #018059",
"J+	c #017F58",
"K+	c #01A153",
"L+	c #007F58",
"M+	c #009E50",
"N+	c #15532F",
"O+	c #55C56A",
"P+	c #55CC64",
"Q+	c #205C34",
"R+	c #03A04E",
"S+	c #044561",
"T+	c #034861",
"U+	c #007E59",
"V+	c #044861",
"W+	c #007E58",
"X+	c #034761",
"Y+	c #00A353",
"Z+	c #019F4E",
"`+	c #1D5D32",
" @	c #54C36C",
".@	c #5AD166",
"+@	c #5BD167",
"@@	c #1F696C",
"#@	c #054124",
"$@	c #00A151",
"%@	c #00815A",
"&@	c #044562",
"*@	c #00A051",
"=@	c #043F25",
"-@	c #1B676C",
";@	c #54C26E",
">@	c #60CC73",
",@	c #206B70",
"'@	c #037F56",
")@	c #034026",
"!@	c #018055",
"~@	c #00A253",
"{@	c #01566C",
"]@	c #044026",
"^@	c #017F56",
"/@	c #1B6B6E",
"(@	c #54C46E",
"_@	c #19522D",
":@	c #028056",
"<@	c #008359",
"[@	c #007F56",
"}@	c #044028",
"|@	c #018056",
"1@	c #044128",
"2@	c #018057",
"3@	c #017F55",
"4@	c #007F57",
"5@	c #038257",
"6@	c #15502C",
"7@	c #063C22",
"8@	c #00546C",
"9@	c #043C27",
"0@	c #043F27",
"a@	c #00586D",
"b@	c #043D27",
"c@	c #008459",
"d@	c #053C21",
"e@	c #434D2D",
"f@	c #095669",
"g@	c #007E56",
"h@	c #00556D",
"i@	c #00566C",
"j@	c #00536E",
"k@	c #07566A",
"l@	c #414C2C",
"m@	c #61CB71",
"n@	c #445B35",
"o@	c #0A3F25",
"p@	c #00805A",
"q@	c #00576F",
"r@	c #008057",
"s@	c #00556F",
"t@	c #435A34",
"u@	c #5AC96E",
"v@	c #63CC73",
"w@	c #404E2D",
"x@	c #048256",
"y@	c #044461",
"z@	c #043D26",
"A@	c #048156",
"B@	c #3F4E2D",
"C@	c #5AC96D",
"D@	c #62CF72",
"E@	c #455C34",
"F@	c #088054",
"G@	c #008259",
"H@	c #00566F",
"I@	c #00536F",
"J@	c #017F57",
"K@	c #01586E",
"L@	c #018159",
"M@	c #04425F",
"N@	c #00546D",
"O@	c #077F54",
"P@	c #445933",
"Q@	c #5ACC6C",
"R@	c #5CCC6C",
"S@	c #414E2C",
"T@	c #038157",
"U@	c #043C28",
"V@	c #04455E",
"W@	c #018257",
"X@	c #043E28",
"Y@	c #04445F",
"Z@	c #04435E",
"`@	c #043E29",
" #	c #018256",
".#	c #043D29",
"+#	c #005670",
"@#	c #005470",
"##	c #00546F",
"$#	c #048157",
"%#	c #414D2B",
"&#	c #5CCC6D",
"*#	c #435834",
"=#	c #085669",
"-#	c #01556C",
";#	c #00536C",
">#	c #043D28",
",#	c #033E28",
"'#	c #00536A",
")#	c #043F29",
"!#	c #018155",
"~#	c #033E2A",
"{#	c #00526A",
"]#	c #043E27",
"^#	c #043D25",
"/#	c #00586F",
"(#	c #075668",
"_#	c #425833",
":#	c #5ACC6E",
"<#	c #008157",
"[#	c #00546E",
"}#	c #00556C",
"|#	c #005570",
"1#	c #018156",
"2#	c #075669",
"3#	c #415633",
"4#	c #5AC86E",
"5#	c #5BD168",
"6#	c #62CB72",
"7#	c #435833",
"8#	c #093E25",
"9#	c #033F28",
"0#	c #00556B",
"a#	c #425631",
"b#	c #5BC86E",
"c#	c #08566B",
"d#	c #01546D",
"e#	c #08556B",
"f#	c #425732",
"g#	c #61CB72",
"h#	c #62D46D",
"i#	c #41502D",
"j#	c #01536C",
"k#	c #043F28",
"l#	c #00576D",
"m#	c #008156",
"n#	c #038156",
"o#	c #414C2D",
"p#	c #62CE70",
"q#	c #445732",
"r#	c #043C29",
"s#	c #085668",
"t#	c #445833",
"u#	c #61CF71",
"v#	c #09546A",
"w#	c #04566E",
"x#	c #04536B",
"y#	c #033D27",
"z#	c #01556D",
"A#	c #033D26",
"B#	c #05546C",
"C#	c #04556E",
"D#	c #085469",
"E#	c #425734",
"F#	c #62D36B",
"G#	c #434E2E",
"H#	c #3F3723",
"I#	c #3D3723",
"J#	c #083B26",
"K#	c #033D28",
"L#	c #093B25",
"M#	c #3E3723",
"N#	c #424E2D",
"O#	c #5AC86D",
"P#	c #61D36B",
"Q#	c #59D167",
"R#	c #62CC75",
"S#	c #37995F",
"T#	c #05814C",
"U#	c #077C4B",
"V#	c #3C3825",
"W#	c #07526B",
"X#	c #04556D",
"Y#	c #005571",
"Z#	c #04536C",
"`#	c #053C27",
" $	c #00566D",
".$	c #053C26",
"+$	c #3D3924",
"@$	c #077D4C",
"#$	c #379B5F",
"$$	c #5AC970",
"%$	c #3A9E60",
"&$	c #06824E",
"*$	c #03814E",
"=$	c #00814F",
"-$	c #067D4D",
";$	c #3F3824",
">$	c #3E3626",
",$	c #06546D",
"'$	c #06536C",
")$	c #403624",
"!$	c #413723",
"~$	c #06536D",
"{$	c #03566E",
"]$	c #04566D",
"^$	c #06526C",
"/$	c #403623",
"($	c #403725",
"_$	c #3E3625",
":$	c #3E3824",
"<$	c #077E4D",
"[$	c #01814F",
"}$	c #06824F",
"|$	c #359C5F",
"1$	c #3A9E61",
"2$	c #59C871",
"3$	c #379C5F",
"4$	c #33995E",
"5$	c #34985F",
"6$	c #05814F",
"7$	c #00804E",
"8$	c #047F4D",
"9$	c #077E4C",
"0$	c #3E3623",
"a$	c #433724",
"b$	c #7E6130",
"c$	c #7E5F30",
"d$	c #423622",
"e$	c #3F3624",
"f$	c #06546B",
"g$	c #3F3625",
"h$	c #423623",
"i$	c #7E6031",
"j$	c #7D6030",
"k$	c #3D3624",
"l$	c #067E4C",
"m$	c #33985E",
"n$	c #04824D",
"o$	c #1B8556",
"p$	c #56CB64",
"q$	c #399962",
"r$	c #04844D",
"s$	c #06804E",
"t$	c #34995F",
"u$	c #32985E",
"v$	c #01824F",
"w$	c #067D4C",
"x$	c #433822",
"y$	c #A87932",
"z$	c #AA7C33",
"A$	c #7C6231",
"B$	c #5B4D24",
"C$	c #7C5F30",
"D$	c #433824",
"E$	c #413624",
"F$	c #423724",
"G$	c #7B5F2F",
"H$	c #5F4E24",
"I$	c #A77A33",
"J$	c #826431",
"K$	c #7E5E2F",
"L$	c #433823",
"M$	c #087E4C",
"N$	c #02814D",
"O$	c #158650",
"P$	c #58C570",
"Q$	c #5BD068",
"R$	c #59D067",
"S$	c #5AC871",
"T$	c #389E61",
"U$	c #05814D",
"V$	c #04804E",
"W$	c #057F4D",
"X$	c #574F25",
"Y$	c #806131",
"Z$	c #AA7B33",
"`$	c #7B6433",
" %	c #087D4C",
".%	c #423723",
"+%	c #826131",
"@%	c #A87A32",
"#%	c #7F6031",
"$%	c #7F6131",
"%%	c #7B6131",
"&%	c #806231",
"*%	c #7E6331",
"=%	c #7D5F30",
"-%	c #554F26",
";%	c #007F4D",
">%	c #06814D",
",%	c #389C62",
"'%	c #59CA6E",
")%	c #5AD168",
"!%	c #369B5F",
"~%	c #05824D",
"{%	c #04814F",
"]%	c #5D4F25",
"^%	c #A87931",
"/%	c #7D6231",
"(%	c #0B7F4D",
"_%	c #057E4D",
":%	c #574F26",
"<%	c #A57B33",
"[%	c #AB7C33",
"}%	c #816331",
"|%	c #A97B33",
"1%	c #7A6132",
"2%	c #09633D",
"3%	c #584E25",
"4%	c #7C6131",
"5%	c #0C7F4D",
"6%	c #776132",
"7%	c #0C633D",
"8%	c #01804E",
"9%	c #04814E",
"0%	c #05824E",
"a%	c #369B60",
"b%	c #5AC670",
"c%	c #59C86C",
"d%	c #59D068",
"e%	c #5ACC6D",
"f%	c #3B9A64",
"g%	c #349A5E",
"h%	c #31985E",
"i%	c #06804D",
"j%	c #5C4E25",
"k%	c #00653F",
"l%	c #047E4C",
"m%	c #10653E",
"n%	c #A87C33",
"o%	c #A67A33",
"p%	c #0F653E",
"q%	c #007F4E",
"r%	c #555027",
"s%	c #07653F",
"t%	c #017F4E",
"u%	c #35995F",
"v%	c #359A5E",
"w%	c #389862",
"x%	c #3C9963",
"y%	c #5ACB6C",
"z%	c #54CA64",
"A%	c #56C36E",
"B%	c #3A9E62",
"C%	c #339B5D",
"D%	c #02814F",
"E%	c #087F4D",
"F%	c #017F4D",
"G%	c #007E4E",
"H%	c #0C643F",
"I%	c #A37B33",
"J%	c #10643D",
"K%	c #7C6031",
"L%	c #7B6132",
"M%	c #077F4D",
"N%	c #03804E",
"O%	c #06814F",
"P%	c #3C9E62",
"Q%	c #59C570",
"R%	c #59C86E",
"S%	c #55C46D",
"T%	c #349B5D",
"U%	c #32985D",
"V%	c #097F4D",
"W%	c #776332",
"X%	c #766132",
"Y%	c #0D643E",
"Z%	c #03814F",
"`%	c #32985F",
" &	c #02824C",
".&	c #55CC65",
"+&	c #55C46E",
"@&	c #369C5E",
"#&	c #00804D",
"$&	c #007E4D",
"%&	c #08653F",
"&&	c #34985E",
"*&	c #33985F",
"=&	c #04824E",
"-&	c #04814D",
";&	c #158651",
">&	c #158851",
",&	c #3A9864",
"'&	c #56C76B",
")&	c #399863",
"!&	c #148751",
"~&	c #168651",
"{&	c #168752",
"]&	c #32995D",
"^&	c #00814D",
"/&	c #01814D",
"(&	c #05834E",
"_&	c #349B5E",
":&	c #379D60",
"<&	c #3A9C61",
"[&	c #58C86F",
"}&	c #55CA64",
"|&	c #55C56D",
"1&	c #55C66A",
"2&	c #54C66A",
"3&	c #3B9C61",
"4&	c #389B60",
"5&	c #3A9B60",
"6&	c #32995E",
"7&	c #05804E",
"8&	c #178752",
"9&	c #379C61",
"0&	c #389D60",
"a&	c #59C670",
"b&	c #59C86D",
"c&	c #55CB63",
"d&	c #55C76B",
"e&	c #55C36C",
"f&	c #03814D",
"g&	c #379A60",
"h&	c #59C96E",
"        . . . . + + + + + + + + + + + + + + + + + + + + . . . . @ @ @ @ @ @ @ @ @ @ @ @ # # # # $ $ $ $ @ @ @ @ % % % % # # # # ",
"        . . . . + + + + + + + + + + + + + + + + + + + + & * = - - ; > , @ @ @ @ @ @ @ @ # # # # $ $ $ $ @ @ @ @ % % % % # # # # ",
"        . . . . + + + + + + + + + + + + + + + + + ' ' ) ! ~ { ] ^ / ( _ : < [ @ @ @ @ @ # # # # $ $ $ $ @ @ @ @ % % % % # # # # ",
"        . . . . + + + + + + + + + + + + + + + } | 1 2 3 { 4 ] 5 6 7 8 9 ( 0 a > @ @ @ @ # # # # $ $ $ $ @ @ @ @ % % % % # # # # ",
"# # # # + + + + + + + +         + + + +       b c d e f g h i 5 5 7 j k 4 l m n o # # # # # # # # # # # # # # # $ $ $ $         ",
"# # # # + + + + + + + +         + + + +       p q r 6 f s ] 5 5 5 5 ] t ^ 6 7 u v # # # # # # # # # # # # # # # $ $ $ $         ",
"# # # # + + + + + + + +         + + + +   & w x y 6 5 5 5 5 5 5 5 5 7 t z A 7 B C v D # # # # # # # # # # # # # $ $ $ $         ",
"# # # # + + + + + + + +         + + + + p E F G 7 f h ] 5 5 5 5 5 5 5 ] 8 H I z J K L v # # # # # # # # # # # # $ $ $ $         ",
"# # # # M M M M N N N N @ @ @ @ O O P Q R S T k k s 5 5 5 5 5 5 5 5 5 f s ] ] g k U V W X # # # # # # # # # # # $ $ $ $         ",
"# # # # M M M M N N N N @ @ @ @ O O Y Z `  ...A ] 5 5 5 5 5 5 5 5 5 5 5 5 5 5 5  .+.8 ` @.o # # # # # # # # # # $ $ $ $         ",
"# # # # M M M M N N N N @ @ @ @ O O #.$.8 %.A &.6 f h ] 5 5 5 5 5 5 5 5 5 ] s f 6 *.%.8 =.o # # # # # # # # # # $ $ $ $         ",
"# # # # M M M M N N N N @ @ @ @ O O #.-.;.>.,.] ^ h ] 5 5 5 5 5 5 5 5 5 6 5 ] s f ,.'.).!.~.# # # # # # # # # # $ $ $ $         ",
"        @ @ @ @         % % % % # # # {.].^./.(._.f 6 6 5 5 5 5 5 5 5 5 5 :.5 I +.<.^.[.}.# # # # # # # # # # # # # # # $ $ $ $ ",
"        @ @ @ @         % % % % # |.1.2.3.<.4.5.] 5 5 5 5 5 5 5 5 5 5 ] s f :.5 6.7.<.8.9.v # # # # # # # # # # # # # # $ $ $ $ ",
"        @ @ @ @         % % % % # 0.a.3.5.b.c.6 5 5 f h ] 5 6 5 5 5 5 5 ] h f :.6 c.b.5.G d.o # # # # # # # # # # # # # $ $ $ $ ",
"        @ @ @ @         % % % % # e.f.g.h.c.&.5 5 f j 5 5 5 5 5 5 5 6 5 5 8 i.7 6 &.j.h.g.k.o # # # # # # # # # # # # # $ $ $ $ ",
"@ @ @ @ @ @ @ @ O O O O % % % % @ l.m.n.o.] &.:.5 g k ] 6 f h ] 5 5 5 5 ] k  .t f 6 ,.p.q.r.~.# # # # # s.s.s.s.$ $ $ $         ",
"@ @ @ @ @ @ @ @ O O O O % % % % @ @ t.u.v.6.7 6 w.k g 7 5 s ] 5 5 ] s 5 f g x.y.t z.A.v.B.{.# # # # # # s.s.s.s.$ $ $ $         ",
"@ @ @ @ @ @ @ @ O O O O % % % % C.D.E.F.G.^.H.I.J. .t i.f t ] 5 5 ] j f t t  .K.L.M.^.G.N.O.X # # # # # s.s.s.s.$ $ $ $         ",
"@ @ @ @ @ @ @ @ O O O O % % % % < P.Q.t z.G.>.v.R.i.t i. .H ] 6 5 ] k  .t t 4 I.o.v.I.l 4 Q.S.o # # # # s.s.s.s.$ $ $ $         ",
"@ @ @ @ @ @ @ @ # # # # # # # |.T.U.4 i.8 k V. .t t i.V.v.I.7 6 6 f W.>.V.z.g k V.T x.g i.8 X.> # # # #         $ $ $ $ @ @ @ @ ",
"@ @ @ @ @ @ @ @ # # # # # # # 0.Y.Z.i.8 R.x.i.i.t i.z.V.o.`.t e e 4 `.p.R.g t g i.t x.R.t i. +E o # # #         $ $ $ $ @ @ @ @ ",
"@ @ @ @ @ @ @ @ # # # # # # # .+++4 4 H.^.@+f t t t t 4 L.v.H.@+V.H.v.L.y.y.x.t t z.V.#+H.$+g %+o # # #         $ $ $ $ @ @ @ @ ",
"@ @ @ @ @ @ @ @ # # # # # # # &+*+=+I.-+5.7 i.t  .x.k t i.5.-+o.o.;+L.x.y.>+y.g i.t i.G.-+H.=+,+v # # #         $ $ $ $ @ @ @ @ ",
"@ @ @ @ # # # # # # # # # # 1.'+)+!+~+{+8 i.t  .- >+g t t 4 V.V.V.T y.x. .x.]+y.g i.i.8 ^+/+(+_+:+<+            @ @ @ @ [+[+[+[+",
"@ @ @ @ # # # # # # # # |.1.}+|+1+2+/+`.x.g g k L.J.g i.g x.t i.i.t x.g t g >+3+x.t g y.3+`.4+5+6+7+<+          @ @ @ @ [+[+[+[+",
"@ @ @ @ # # # # # # # # 0.8+|+k >+3+2+v.9+x.x.H.-+I.i.t  .x.g t t g k g t t  .3+I.x.x.y.>+3+3+y.k 9 0+&         @ @ @ @ [+[+[+[+",
"@ @ @ @ # # # # # # # # o a+b+k y.{+3+3+y.x.I.c+`.j f g x.g t t t t g k g i.g ^+c+>+x.y.y.I.3+>+x.b+d+&         @ @ @ @ [+[+[+[+",
"        # # # # # # # # e+f+g+y.h+3+>+b+y.x.i+j+k+g z. .K.g i.t t i.g K.g i. .^+j+i+x.y.y.>+3+h+y.l+m+n+                + + + + ",
"        # # # # # # # # # X o+p+q+9+x.x.x.x.9+r+s+x.4 t+u+T 4 i.t t 5.v+T $+y.s+w+x+>+x.x.x.i+y+z+A+B+C+                + + + + ",
"        # # # # # # # # # # }.D+E+x.x.y.>+y.y.x+!+F+G+H+!+I+x.t 4 k J+!+n.K+s+(+L+{+K.>+y.x.x.M+N+O+P+P+                + + + + ",
"        # # # # # # # # # 1.Q+R+g x.9+{+K.y.y.y.x+r+S+T+U+V+n.G+G+H+(+W+!+j+X+L+5+>+>+3+]+>+y.Y+Z+`+ @P+                + + + + ",
".@.@.@.@+@+@+@+@# # # # 1.@@#@$@k y.%@>.L.x.y.x.>+x+4+4+3+4+r+&@S+X+L+3+4+4+4+3+y.y.y.R.3+]+y.k *@=@-@;@P+P+P+P+@ @ @ @ + + + + ",
".@.@.@.@+@+@+@+@# # # >@,@'@)@!@~@I.{@^+x.y.x.>+K.>+>+K.{+{+x+x+4+4+{+{+]+3+{+3+>+x.y.y.>+x+>+t+!@]@^@/@(@P+P+P+@ @ @ @ + + + + ",
".@.@.@.@+@+@+@+@# # # _@:@<@[@}@|@!@1@*@x.y.>+{+3+y.y.>+{+3+y.y.>+3+{+>+>+{+{+{+{+>+y.x.I.v.2@3@}@4@<@5@6@P+P+P+@ @ @ @ + + + + ",
".@.@.@.@+@+@+@+@# # # 7@4+<@J+8@9@0@M+Y+y.y.^+o.I.x.y.>+3+>+y.y.y.I.3+>+>+{+y.I.a@h+y.y.Y+i+0@b@8@F+c@4+d@P+P+P+@ @ @ @ + + + + ",
"+ + + +         # # # e@f@g@}@h@~+i@>+x.x.I.p.^+x.y.y.>+3+y.y.y.y.>+3+{+3+5+y.y.`.(+I.x.k 9+h@j@h@1@g@k@l@      . . . . + + + + ",
"+ + + +         # # # m@n@o@[@{+p@q@^+y.>+^+u+I.x.y.x.>+]+y.y.y.y.y.>+{+{+y.y.x.i+j+r@y.y.<@s@q@^+[@o@t@u@      . . . . + + + + ",
"+ + + +         # # # # v@w@x@3+^+/+/+^+^+~+&@9+x.x.9+3+{+y.y.y.y.y.>+h+3+>+x.k 9+y@z@r@<@2+/+^+K.A@B@C@        . . . . + + + + ",
"+ + + +         # # # D@E@F@G@{+]+^+s@s@H@I@y@x+y.~@K.J@K@>+x.y.y.x.i+!+J@J.>+~@L@M@9@N@H@s@/+{+{+G@O@P@Q@      . . . . + + + + ",
"+ + + + + + + + +@+@+@R@S@T@3+3+G@`.H@s@H@N@U@V@2@W@3@X@Y@I.x.x.x.k I.Z@`@3@ #2@Y@.#8@+#@###/+^+]+3+$#%#Q@                      ",
"+ + + + + + + + +@+@+@&#*#=#%@`.-#o.{+{+^+q@;#>#z@z@,#'#)#!#~@Y+y.t+!@~#{#]#z@^#>#8@/#p@p.@###{@%@%@(#_#:#                      ",
"+ + + + + + + + +@+@+@+@m@*#=#8@`@<#I.{+{+^++#[#N@}#N@|#;#)#!@1#W@3@X@8@|#N@N@N@N@H@x+3+`.p.N@.#}#2#3#4#5#                      ",
"+ + + + + + + + +@+@+@+@# 6#7#8#h@G@3+{+3+`.s@q@^+^+q@@#+#8@b@z@^#9#0#|#s@+#H@+#H@H@^+]+3+`.q@N@8#a#b#5#                        ",
"+ + + + @ @ @ @ # # # # # # 6#7#c#G@{+3+`.H@d#x+3+3+2+p.^+^+h@N@i@r@^+s@H@x+{+x+^+d#+#`.{+3+^+e#f#g#h#$                 .@.@.@.@",
"+ + + + @ @ @ @ # # # # # # # 6#i#$#K.x+q@j#k#<#3+`.l#x+3+3+G@^+^+3+x+/+/+^+3+3+m#)#;#q@{+K.n#o#m@h#$ $                 .@.@.@.@",
"+ + + + @ @ @ @ # # # # # # # p#q#=#%@%@h@r#0#G@{+^+p.p@{+{+{+{+{+{+{+^+|#/+G@{+^+0#>#~+%@%@s#t#u#$ $ $                 .@.@.@.@",
"+ + + + @ @ @ @ # # # # # # # # m@*#v#w#x#y#h@G@3+`.H@{@{+{+{+{+{+{+{+G@z#/+{+]+^+h@A#B#C#D#E#g#h#$ $ $                 .@.@.@.@",
"@ @ @ @ # # # # F#F#F#F#$ $ $ $ # 6#G#H#I#J#/+%@`.H@[#,#4+3+{+{+{+{+3+r@K#/+`.{+p@~+L#M#H#N#O#5#+@+@+@+@P#P#P#P#Q#Q#Q#Q#+ + + + ",
"@ @ @ @ # # # # F#F#F#F#$ $ $ $ |.R#S#T#U#V#W#X#H@Y#Z#`# $%@]+]+]+3+%@ $.$Z#+#H@C#W#+$@$T##$$$  +@+@+@+@P#P#P#P#Q#Q#Q#Q#+ + + + ",
"@ @ @ @ # # # # F#F#F#F#$ $ $ $ D@%$&$*$=$-$;$>$,$'$)$!$~${$p@G@G@^+]$^$/$($~$,$_$:$<$[$}$|$1$2$+@+@+@+@P#P#P#P#Q#Q#Q#Q#+ + + + ",
"@ @ @ @ # # # # F#F#F#F#$ $ $ h#1.3$4$5$6$7$8$9$0$a$b$c$d$e$f${$X#f$g$h$i$j$h$k$l$8$7$*$4$m$n$o$Q@+@+@+@P#P#P#P#Q#Q#Q#Q#+ + + + ",
"P+P+P+P++ + + + p$p$p$p$@ @ @ Y q$r$s$t$u$*$v$w$x$y$z$A$B$C$D$E$)$F$G$H$I$J$K$L$M$=$7$7$*$N$O$P$Q$R$R$R$+ + + + + + + + + + + + ",
"P+P+P+P++ + + + p$p$p$p$@ @ @ @ S$T$U$*$V$7$W$X$Y$Z$`$ %.%+%@%#%i$b$$%%%&%I$*%=%-%W$7$;%7$>%,%'%R$R$R$R$+ + + + + + + + + + + + ",
"P+P+P+P++ + + + p$p$p$p$@ @ @ @ )%$$!%~%V${%W$]%^%/%(%_%:%<%[%}%&%|%1%2%3%4%5%6%7%8%8%9%0%a%b%c%d%R$R$R$+ + + + + + + + + + + + ",
"P+P+P+P++ + + + p$p$p$p$@ @ @ @ e%f%g%5$m$h%i%6%j%:%8$k%l%m%n%o%}%I$p%q%2%r%W$s%t%7$*$u$u%v%w%x%y%R$R$R$+ + + + + + + + + + + + ",
"        . . . . + + + + z%z%z%z%P+A%B%C%{%D%7$E%W$W$F%k%G%H%I%J%K%L%M%7$;%N%N%q%;%7$7$O%v%P%Q%R%C.@ @ @ + + + + + + + + N N N N ",
"        . . . . + + + + z%z%z%z%P+P+S%1$T%U%*$7$7$7$q%q%7$V%W%l$X%Y%8%7$Z%`%t$O%N%;%;% &!%D.@ @ @ @ @ @ + + + + + + + + N N N N ",
"        . . . . + + + + z%z%z%z%P+P+.&+&@&n$#&N%;%7$N%#&7$t%s%$&%&t%7$7$7$O%&&&&*&=&-&;&>&,&[ @ @ @ @ @ + + + + + + + + N N N N ",
"        . . . . + + + + z%z%z%z%P+P+'&)&!&~&{&]&0%0%]&O%;%7$q%7$q%;%7$7$;%^&/&(&_&:&<&> [&R%C.@ @ @ @ @ + + + + + + + + N N N N ",
"                . . . . + + + + + + }&|&1&2&| 3&#$4&5&6&6$N%7$8%9%V$7$8%7&8&9&0&P%a&b&C.@ @ @ @ @ @ @ @ @ @ @ @ @ @ @ @         ",
"                . . . . + + + + + + + + c&c&c&1&' d&e&0&v%t$N%N%u%t$N%f&g&a&Y h&Y C.@ @ @ @ @ @ @ @ @ @ @ @ @ @ @ @ @ @         ",
"                . . . . + + + + + + + + c&c&c&c&+ + + + @ @ @ @ @ @ @ @ @ @ @ @ @ @ @ @ @ @ @ @ @ @ @ @ @ @ @ @ @ @ @ @         ",
"                . . . . + + + + + + + + c&c&c&c&+ + + + @ @ @ @ @ @ @ @ @ @ @ @ @ @ @ @ @ @ @ @ @ @ @ @ @ @ @ @ @ @ @ @         "};
