/* XPM */
static char * Tree_Frame02_xpm[] = {
"64 64 508 2",
"  	c #5AD167",
". 	c #5AD067",
"+ 	c #55CB64",
"@ 	c #55C36E",
"# 	c #16626F",
"$ 	c #008358",
"% 	c #59C871",
"& 	c #59CE67",
"* 	c #62D46C",
"= 	c #61D46C",
"- 	c #5ACE67",
"; 	c #54C66B",
"> 	c #028456",
", 	c #00C357",
"' 	c #00D964",
") 	c #018458",
"! 	c #1D8C5A",
"~ 	c #58C670",
"{ 	c #57CB65",
"] 	c #55C26E",
"^ 	c #14666D",
"/ 	c #00C356",
"( 	c #00C257",
"_ 	c #00D764",
": 	c #00D763",
"< 	c #018257",
"[ 	c #1C8C5A",
"} 	c #118A58",
"| 	c #00C457",
"1 	c #00C157",
"2 	c #00A553",
"3 	c #005C6D",
"4 	c #00BE58",
"5 	c #00D864",
"6 	c #02C257",
"7 	c #00C258",
"8 	c #00D563",
"9 	c #00A053",
"0 	c #01C355",
"a 	c #57C570",
"b 	c #58CA6E",
"c 	c #16666F",
"d 	c #00D664",
"e 	c #00D663",
"f 	c #00C458",
"g 	c #00C358",
"h 	c #008759",
"i 	c #01D662",
"j 	c #58C86D",
"k 	c #5AC971",
"l 	c #028257",
"m 	c #1E8F5C",
"n 	c #1D8D5B",
"o 	c #1C8D5A",
"p 	c #00A252",
"q 	c #008458",
"r 	c #00C158",
"s 	c #00A352",
"t 	c #03C157",
"u 	c #02D663",
"v 	c #01D862",
"w 	c #60CB73",
"x 	c #5AD066",
"y 	c #55CB65",
"z 	c #59CF67",
"A 	c #1D8C5C",
"B 	c #00A653",
"C 	c #008758",
"D 	c #16895A",
"E 	c #1C6B6E",
"F 	c #00D865",
"G 	c #00D464",
"H 	c #00586E",
"I 	c #00D562",
"J 	c #60CB74",
"K 	c #59CB6D",
"L 	c #008558",
"M 	c #00C056",
"N 	c #00A353",
"O 	c #008657",
"P 	c #00BF58",
"Q 	c #00D564",
"R 	c #1F6B71",
"S 	c #59C870",
"T 	c #1D6D6F",
"U 	c #16656E",
"V 	c #00A452",
"W 	c #00A152",
"X 	c #18686E",
"Y 	c #61CE72",
"Z 	c #3C6050",
"` 	c #06BF56",
" .	c #00A552",
"..	c #00C156",
"+.	c #00C057",
"@.	c #00A153",
"#.	c #38584D",
"$.	c #61CB74",
"%.	c #206D6F",
"&.	c #02D463",
"*.	c #06A04F",
"=.	c #37584C",
"-.	c #03D763",
";.	c #00C058",
">.	c #008359",
",.	c #005A6E",
"'.	c #03A251",
").	c #38564C",
"!.	c #61CB73",
"~.	c #3A6450",
"{.	c #03C256",
"].	c #324B4B",
"^.	c #03A052",
"/.	c #008658",
"(.	c #00A052",
"_.	c #008559",
":.	c #00D965",
"<.	c #008357",
"[.	c #3A6251",
"}.	c #5AC571",
"|.	c #03A051",
"1.	c #63D46D",
"2.	c #62D36C",
"3.	c #59C86D",
"4.	c #05A050",
"5.	c #008258",
"6.	c #008158",
"7.	c #038256",
"8.	c #62CE72",
"9.	c #3A604F",
"0.	c #38554C",
"a.	c #068057",
"b.	c #048058",
"c.	c #038157",
"d.	c #3A5D4F",
"e.	c #077E56",
"f.	c #067F57",
"g.	c #007F59",
"h.	c #00596D",
"i.	c #018159",
"j.	c #067E58",
"k.	c #048157",
"l.	c #3A6051",
"m.	c #62D36B",
"n.	c #424E2C",
"o.	c #3D3925",
"p.	c #077F56",
"q.	c #067E57",
"r.	c #048059",
"s.	c #048057",
"t.	c #077E55",
"u.	c #03A050",
"v.	c #158558",
"w.	c #1B8C5A",
"x.	c #61CA75",
"y.	c #07A250",
"z.	c #048257",
"A.	c #3E3A25",
"B.	c #037F59",
"C.	c #047E58",
"D.	c #3D3B26",
"E.	c #168B5A",
"F.	c #1C6D6E",
"G.	c #01D762",
"H.	c #54C26C",
"I.	c #158958",
"J.	c #3C3B26",
"K.	c #413824",
"L.	c #A97B33",
"M.	c #423723",
"N.	c #403723",
"O.	c #403624",
"P.	c #04A051",
"Q.	c #048156",
"R.	c #00D463",
"S.	c #14656D",
"T.	c #55C56B",
"U.	c #61CB75",
"V.	c #1F8E5B",
"W.	c #60CA72",
"X.	c #04A050",
"Y.	c #088156",
"Z.	c #A97A32",
"`.	c #AA7C32",
" +	c #826231",
".+	c #403825",
"++	c #04BF56",
"@+	c #38614F",
"#+	c #168A5A",
"$+	c #00D762",
"%+	c #038259",
"&+	c #03BF57",
"*+	c #00A253",
"=+	c #5C4F25",
"-+	c #10596C",
";+	c #0A8359",
">+	c #03C156",
",+	c #56C56B",
"'+	c #59CD66",
")+	c #18895B",
"!+	c #005A6D",
"~+	c #564D27",
"{+	c #01BF59",
"]+	c #03A150",
"^+	c #1F6E6E",
"/+	c #00A351",
"(+	c #008259",
"_+	c #564F25",
":+	c #01BF57",
"<+	c #069E51",
"[+	c #32474C",
"}+	c #01A054",
"|+	c #03A152",
"1+	c #37584D",
"2+	c #3A5C4F",
"3+	c #61CE74",
"4+	c #008257",
"5+	c #00596E",
"6+	c #008057",
"7+	c #01A152",
"8+	c #7D6232",
"9+	c #38484A",
"0+	c #049D53",
"a+	c #049E52",
"b+	c #37544D",
"c+	c #62CF72",
"d+	c #02BF57",
"e+	c #00A453",
"f+	c #008459",
"g+	c #00576E",
"h+	c #A97A33",
"i+	c #7D6032",
"j+	c #394448",
"k+	c #058157",
"l+	c #04A152",
"m+	c #009D54",
"n+	c #005B6E",
"o+	c #395F4F",
"p+	c #55CC64",
"q+	c #1F6C6F",
"r+	c #038258",
"s+	c #00D765",
"t+	c #009F52",
"u+	c #038057",
"v+	c #7F6130",
"w+	c #806331",
"x+	c #A97B32",
"y+	c #574D27",
"z+	c #00D863",
"A+	c #36594E",
"B+	c #55C66B",
"C+	c #18646F",
"D+	c #04596C",
"E+	c #7E5F2F",
"F+	c #7B6032",
"G+	c #0C596C",
"H+	c #55C46D",
"I+	c #02A251",
"J+	c #03566D",
"K+	c #04BD57",
"L+	c #554F27",
"M+	c #06C056",
"N+	c #34484A",
"O+	c #385F4F",
"P+	c #56C26C",
"Q+	c #5AD166",
"R+	c #5BD167",
"S+	c #38574F",
"T+	c #05576D",
"U+	c #34494A",
"V+	c #00BF57",
"W+	c #057F56",
"X+	c #36564D",
"Y+	c #55C36D",
"Z+	c #3B6050",
"`+	c #3D6151",
" @	c #395A4E",
".@	c #039F52",
"+@	c #008457",
"@@	c #058055",
"#@	c #068356",
"$@	c #038158",
"%@	c #008557",
"&@	c #03576C",
"*@	c #38594D",
"=@	c #37574D",
"-@	c #1F6B6F",
";@	c #18676E",
">@	c #00586D",
",@	c #008059",
"'@	c #067E55",
")@	c #5ACC6E",
"!@	c #61CC74",
"~@	c #03C056",
"{@	c #008159",
"]@	c #00556F",
"^@	c #36574F",
"/@	c #35454A",
"(@	c #39604F",
"_@	c #354549",
":@	c #00566E",
"<@	c #434D2A",
"[@	c #39574E",
"}@	c #00566F",
"|@	c #37584E",
"1@	c #00BF56",
"2@	c #009F53",
"3@	c #005370",
"4@	c #395F51",
"5@	c #5BD168",
"6@	c #60CF72",
"7@	c #068055",
"8@	c #00576F",
"9@	c #00C256",
"0@	c #00546F",
"a@	c #00A054",
"b@	c #008058",
"c@	c #37564E",
"d@	c #62D46D",
"e@	c #07556D",
"f@	c #206A6F",
"g@	c #62CB74",
"h@	c #00596F",
"i@	c #424E2E",
"j@	c #444D2D",
"k@	c #08556B",
"l@	c #00815A",
"m@	c #00805A",
"n@	c #077F54",
"o@	c #62CC73",
"p@	c #38564B",
"q@	c #3C5F50",
"r@	c #077F55",
"s@	c #414D2D",
"t@	c #434E2D",
"u@	c #07556A",
"v@	c #414C2E",
"w@	c #435833",
"x@	c #3A5D4E",
"y@	c #58C56F",
"z@	c #61D36B",
"A@	c #59D167",
"B@	c #435A34",
"C@	c #08566A",
"D@	c #048256",
"E@	c #445833",
"F@	c #574D25",
"G@	c #00825A",
"H@	c #047F58",
"I@	c #415732",
"J@	c #5AC56E",
"K@	c #59C86C",
"L@	c #5BCE68",
"M@	c #62CD72",
"N@	c #62CD70",
"O@	c #62CA72",
"P@	c #424C2C",
"Q@	c #445732",
"R@	c #61CB72",
"S@	c #455730",
"T@	c #5A4D24",
"U@	c #413523",
"V@	c #067F56",
"W@	c #423523",
"X@	c #5A4C23",
"Y@	c #3F3921",
"Z@	c #58C570",
"`@	c #475730",
" #	c #584D23",
".#	c #7B5E30",
"+#	c #5B4D23",
"@#	c #594C23",
"##	c #59C56F",
"$#	c #56CB64",
"%#	c #5BC871",
"&#	c #62CB75",
"*#	c #379E5F",
"=#	c #5A4D23",
"-#	c #7E6131",
";#	c #443722",
">#	c #433622",
",#	c #7C5F31",
"'#	c #433722",
")#	c #7D6131",
"!#	c #444E2B",
"~#	c #56C36D",
"{#	c #55C26D",
"]#	c #59D067",
"^#	c #5CD168",
"/#	c #3B9E61",
"(#	c #389B61",
"_#	c #06824F",
":#	c #5C4E25",
"<#	c #5C4E24",
"[#	c #806231",
"}#	c #5B4D24",
"|#	c #7D6031",
"1#	c #7B6030",
"2#	c #444C2B",
"3#	c #148752",
"4#	c #3A9D61",
"5#	c #56C36C",
"6#	c #5BC870",
"7#	c #04824E",
"8#	c #37965C",
"9#	c #584F25",
"0#	c #7C6030",
"a#	c #AA7C33",
"b#	c #A87B32",
"c#	c #A87B33",
"d#	c #7E6231",
"e#	c #AB7D33",
"f#	c #7E6130",
"g#	c #574E25",
"h#	c #31985F",
"i#	c #05834D",
"j#	c #58C96D",
"k#	c #3B9F61",
"l#	c #03804E",
"m#	c #594E24",
"n#	c #806031",
"o#	c #AA7D33",
"p#	c #A77A33",
"q#	c #A87A33",
"r#	c #7F6131",
"s#	c #5A4D25",
"t#	c #047F4D",
"u#	c #00804E",
"v#	c #54CA64",
"w#	c #5AC870",
"x#	c #03814E",
"y#	c #5A4E24",
"z#	c #7C6131",
"A#	c #463923",
"B#	c #AB7C33",
"C#	c #A97C33",
"D#	c #7B5F30",
"E#	c #7A6031",
"F#	c #017F4E",
"G#	c #05824F",
"H#	c #3C9F62",
"I#	c #3B9E62",
"J#	c #05814E",
"K#	c #047E4D",
"L#	c #0B643E",
"M#	c #AD7D33",
"N#	c #7B6031",
"O#	c #007F4E",
"P#	c #3C9D63",
"Q#	c #369D60",
"R#	c #32975E",
"S#	c #007F4D",
"T#	c #08633E",
"U#	c #816130",
"V#	c #5D4E24",
"W#	c #AA7B32",
"X#	c #7C6031",
"Y#	c #7C6232",
"Z#	c #766232",
"`#	c #32985E",
" $	c #05814F",
".$	c #399E61",
"+$	c #33995E",
"@$	c #04804E",
"#$	c #077F4D",
"$$	c #0C7E4D",
"%$	c #7B6332",
"&$	c #0A633E",
"*$	c #0A623D",
"=$	c #786132",
"-$	c #7D6231",
";$	c #796332",
">$	c #00653F",
",$	c #04814F",
"'$	c #349A5E",
")$	c #55CB63",
"!$	c #56C66A",
"~$	c #349C5D",
"{$	c #34995F",
"]$	c #0B7F4D",
"^$	c #08804D",
"/$	c #00643F",
"($	c #087F4D",
"_$	c #08814E",
":$	c #08804E",
"<$	c #06814F",
"[$	c #34985F",
"}$	c #349C5C",
"|$	c #58C86C",
"1$	c #55C668",
"2$	c #399D61",
"3$	c #339B5D",
"4$	c #349B5E",
"5$	c #35995F",
"6$	c #399B62",
"7$	c #339A5E",
"8$	c #379B60",
"9$	c #359B5E",
"0$	c #3A9C62",
"a$	c #55C769",
"b$	c #379B5E",
"c$	c #3A9D62",
"d$	c #3A9C63",
"e$	c #34995E",
"f$	c #399B61",
"g$	c #33995D",
"h$	c #59C670",
"i$	c #59C96D",
"        . . . . + + + + + + + + + + + + + + + + + + + @ # $ % . & & & & & & & & & & & & * * * * = = = = & & & & - - - - * * * * ",
"        . . . . + + + + + + + + + + + + + + + + + + ; > , ' ) ! ~ & & & & & & & & & & & * * * * = = = = & & & & - - - - * * * * ",
"        . . . . + + + + + + + + + + + + + + + + { ] ^ / ( ( _ : < [ & & & & & & & & & & * * * * = = = = & & & & - - - - * * * * ",
"        . . . . + + + + + + + + + + + + + + + + ] } | 1 2 _ _ 3 4 5 [ & & & & & & & & & * * * * = = = = & & & & - - - - * * * * ",
"* * * * + + + + + + + +         + + + +         [ 6 _ 7 7 _ 8 9 _ _ 0 a b & & & * * * * * * * * * * * * * * * * = = = =         ",
"* * * * + + + + + + + +         + + + +         c d _ e f 5 e 8 g 5 h 5 i j & & * * * * * * * * * * * * * * * * = = = =         ",
"* * * * + + + + + + + +         + + + +       k l 1 e d d 1 d _ _ ( _ _ 5 m n [ * * * * * * * * * * * * * * * * = = = =         ",
"* * * * + + + + + + + +         + + + +       o p q r _ _ s : _ _ d _ 5 _ t u v w * * * * * * * * * * * * * * * = = = =         ",
"* * * * x x x x y y y y & & & & z z z z     A 5 d g p : d r _ _ _ 5 _ B 8 C 5 5 D * * * * * * * * * * * * * * * = = = =         ",
"* * * * x x x x y y y y & & & & z z z z     E 5 _ _ , _ _ _ _ _ _ g F G H : e I J * * * * * * * * * * * * * * * = = = =         ",
"* * * * x x x x y y y y & & & & z z z z   K K c _ 8 L s 8 5 8 d F M N O P _ Q , R * * * * * * * * * * * * * * * = = = =         ",
"* * * * x x x x y y y y & & & & z z z z S E T U s s Q p L : ( 1 e V $ W , 5 _ , X * * * * * * * * * * * * * * * = = = =         ",
"        & & & &         - - - - * * Y Z ` ' 5  ., _ _ d ..+.@.+.( ( s s 1 ( ( , V #.$.* * * * * * * * * * * * * * * * * = = = = ",
"        & & & &         - - - - * %.&., ( , e ( ( , 5 ( ( +.p g : ( +.9 ( s s s p s *.Z * * * * * * * * * * * * * * * * = = = = ",
"        & & & &         - - - - * =.-.( , ..( ( , ( 1 ( ( ( V , ( ;.>.,.4 1 p p s p '.).* * * * * * * * * * * * * * * * = = = = ",
"        & & & &         - - - - * !.~.{.].^.s W $ /.( ( ( +.p (._.N :.1 q s p W <.'.[.$.* * * * * * * * * * * * * * * * = = = = ",
"& & & & & & & & z z z z - - - - & & & }.{.| p s q +.s ( 1 (.(.s e : , 1 , q p p |.$.1.* * * * * * * * * 2.2.2.2.= = = =         ",
"& & & & & & & & z z z z - - - - & & & 3.4.'.p 5.5.6.p $ (.p 1 ( 1 (.p p p 5.W p 7.8.* * * * * * * * * * 2.2.2.2.= = = =         ",
"& & & & & & & & z z z z - - - - & & & & 9.0.a.$ 5.5.$ 5.<.(.1 , 1 $ p p (.b.$ $ c.8.* * * * * * * * * * 2.2.2.2.= = = =         ",
"& & & & & & & & z z z z - - - - & & & & & & d.@.>.e.f.g.h.5.W s (.5.s W i.j.e.k.l.* * * * * * * * * * * 2.2.2.2.= = = =         ",
"& & & & & & & & * * * * * * * * * * * * m.m.m.n.o.p.q.r.$ 5.s.$ 5.>.>.>.t.k.u.v.] w.+ + & & & & * * * *         = = = = & & & & ",
"& & & & & & & & * * * * * * * * * * * * m.m.x.y.k.5.k.z.>.>.A.>.>.B.C.e.D.N V E.F.G.H.+ & & & & * * * *         = = = = & & & & ",
"& & & & & & & & * * * * * * * * * * * Y m.m.I...W p @.J.e.K.L.M.N.O.P.Q.p , _ _ e R.S.T.& & & & * * * *         = = = = & & & & ",
"& & & & & & & & * * * * * * * * * U.V.5 V.W.$.d ( , q s X.Y.Z.`. +.+,.s p 1 F _ f Q ++@+& & & & * * * *         = = = = & & & & ",
"& & & & * * * * * * * * * * * * * #+$+e ( %+&+, e 7 , s W *+=+-+;+g ..W /.( , , : 5 5 >+,++ + +                 & & & & '+'+'+'+",
"& & & & * * * * * * * * * * * * * )++.( 4 !+/ ( g _ g W q @.~+{+d _ V 7 d ( ( +., _ , ]+,++ + +                 & & & & '+'+'+'+",
"& & & & * * * * * * * * * * * 1.^+d Q V W W ( /+e F e p p (+_+: F _ _ 5 e :+<+[+}+|+1+2+{ + + +                 & & & & '+'+'+'+",
"& & & & * * * * * * * * * * * 3+/ _ _ _ _ G 4+5+6+*+s p p 7+8+9+b.r _  .0+C.a+s @.b+{ + + + + +                 & & & & '+'+'+'+",
"        * * * * * * * * * * * c+d+5 _ g 5 5 e+Q f+g+W p p 4.h+i+j+k+l+m+n+5.q (. .o++ + + + + + p+p+p+p+                + + + + ",
"        * * * * * * * * * * * q+r+( ( ..: e s+_ ' Q 4+W t+u+v+w+x+y+r.4 z+1 1 r A++ B+T.B++ + + p+p+p+p+                + + + + ",
"        * * * * * * * * * * C+: ( V 7 d ..( F _ _ e (.G Q D+E+F+G+V p ( 1 +., : >+H+I+M :+T.+ + p+p+p+p+                + + + + ",
"        * * * * * * * * * * J+, , , : _ d ( V _ ( ( 2 _ _ z+K+L+M+( , p (.(.s s N+N , ( ( O+P++ p+p+p+p+                + + + + ",
"Q+Q+Q+Q+R+R+R+R+* * * * * * S+g 1 +.( F : ( V ( ( ( ( 5 _ _ ( T+:+, ( W q $ p W U+( 1 , V+W+X+Y++ + + + p+p+p+p+& & & & + + + + ",
"Q+Q+Q+Q+R+R+R+R+* * * * * * * Z+`+ @.@N +@L 5 d ( 1 p , : ( ( W p s (.W , _ f V+1 ( 1 s W ( 1 @@T.+ + + p+p+p+p+& & & & + + + + ",
"Q+Q+Q+Q+R+R+R+R+* * * * * * * * $.#@;.+.p s e 1 W q W s 1 ( +.(.+@s Q g ( : , 1 1 , 1 s $ s ( $@,++ + + p+p+p+p+& & & & + + + + ",
"Q+Q+Q+Q+R+R+R+R+* * * * * * * * Z+d 5 ( p p s p 1 ( %@p /+p q L W ( 5 _ d 1 ( ( s ( s W 5.W W &@Y++ + + p+p+p+p+& & & & + + + + ",
"+ + + +         * * * * * * * * *@| : , $ p p s 5 _ 5 5+H 6.e 5 e : 5 e ( p ( , s $ W $ p q V+p =@              . . . . + + + + ",
"+ + + +         * * * * * * * * $.'...s q +@1 M 8 5 ( , / !+V ( N ( ( , , p L @.W 5.$ p $ W s W l.              . . . . + + + + ",
"+ + + +         * * * * * * * -@;@s p p ( 1 W p p s ( : : ..>@6.6.p ( s s p W 5.W W 6.<.p H ,@'@)@              . . . . + + + + ",
"+ + + +         * * * * * * !@~@(.( 1 p s s p s 1 s 1 1 ( s {@]@g+$ $ p W s $ $ p p $ 6.$ ,@g+^@                . . . . + + + + ",
"+ + + + + + + + R+R+R+R+* * /@, +.( ( p 9 5.W ( , 1 p 9 q ( p W W 5.W $ 5.<.5.5.W p p {@g+$ (+<.(@                              ",
"+ + + + + + + + R+R+R+R+* * _@V $ P 1 W 1 1 5.V+s p q 5.$ s p W $ <.p W L 1 p p 5.W {@:@p p W g+$ <@                            ",
"+ + + + + + + + R+R+R+R+* * [@s ,@,.(.s ( ( W L s s +.p 9 W 1 5.5.W W s 1 ( p p 5.6.:@]@W p s }@f+<@                            ",
"+ + + + + + + + R+R+R+R+* * * |@9 s W q ..s $ , 1 p *+p p ( ( 1@%@( 1 q p , +@2@>@{@3@:@5.p W ,@4@5@                            ",
"+ + + + & & & & * * * * * * * #.W s W 5.$ 5.}@....p 1 V W p 1 g+g+, ..g+g.q 5.,@$ W {@:@5.5.5.c.6@= = =                 Q+Q+Q+Q+",
"+ + + + & & & & * * * * * * * !.7@(+g.(+$ 6.<.g+8@+.( 9@@.]@0@}@]@a@,@b@b@5.5.5.4+p 5.5.g+5.$ c@d@= = =                 Q+Q+Q+Q+",
"+ + + + & & & & * * * * * * * * Z+e@}@1 W $ b@5.H 4 / ( a@0@g+5.6.g+]@6.<.6.5.5.6.$ 5.5.J+$ $ f@= = = =                 Q+Q+Q+Q+",
"+ + + + & & & & * * * * * * * * * g@#.s s 9 ,@p p 5.h@i@j@k@p p W 5.:@W p 9 ,@l@0@m@f+n@o@p@q@1.= = = =                 Q+Q+Q+Q+",
"& & & & * * * * m.m.m.m.= = = = * * !.r@q m@5.s /+*+s@1.1.t@@.s W 5.,@$ p +@u@v@q@w@x@y@        R+R+R+R+z@z@z@z@A@A@A@A@+ + + + ",
"& & & & * * * * m.m.m.m.= = = = * * * B@b.C@r@W 9 D@E@* c+F@G@W $ 5.,@H@$ 5.I@J@K@K@3.L@        R+R+R+R+z@z@z@z@A@A@A@A@+ + + + ",
"& & & & * * * * m.m.m.m.= = = = * * * * M@N@O@P@Q@R@1.c+S@T@U@V@k.V@W@X@Y@Z@L@& & & & &         R+R+R+R+z@z@z@z@A@A@A@A@+ + + + ",
"& & & & * * * * m.m.m.m.= = = = * * * * 2.2.2.2.1.8.1.`@ #T@T@.#+#@#T@j@##& & & & & & &         R+R+R+R+z@z@z@z@A@A@A@A@+ + + + ",
"p+p+p+p++ + + + $#$#$#$#& & & &         R+R+R+%#&#*#o@=#-#;#-#>#,#'#)#!#~#] {#+ & & & & & & & & ]#]#]#]#+ + + + + + + + + + + + ",
"p+p+p+p++ + + + $#$#$#$#& & & &         R+R+^#/#(#_#j@:#)#<#[#'#-#}#|#1#2#3#4#5#& & & & & & & & ]#]#]#]#+ + + + + + + + + + + + ",
"p+p+p+p++ + + + $#$#$#$#& & & &         R+R+6#7#8#9#0#a#b#-#c#d#e#-#c#f#0#g#h#i#j#& & & & & & & ]#]#]#]#+ + + + + + + + + + + + ",
"p+p+p+p++ + + + $#$#$#$#& & & &         R+R+k#l#m#n#T@o#p#c#c#a#a#q#r#-#s#r#t#u#4#& & & & & & & ]#]#]#]#+ + + + + + + + + + + + ",
"        . . . . + + + + v#v#v#v#p+p+p+p+. . w#x#y#z#A#B#r#C#[#L.[#q#D#p#A#E#F#G#H#& & & & & & & & & & & + + + + + + + + y y y y ",
"        . . . . + + + + v#v#v#v#p+p+p+p+. . I#J#K#L#M#r#:#L.L.a#C#e#;#L.e#N#O#_#P#& & & & & & & & & & & + + + + + + + + y y y y ",
"        . . . . + + + + v#v#v#v#p+p+p+p+. . Q#R#S#T#U#V#-#W#-#x+b#a#-#X#Y#Z#`# $.$& & & & & & & & & & & + + + + + + + + y y y y ",
"        . . . . + + + + v#v#v#v#p+p+p+p+. . %#+$R#@$#$$$%$&$z#*$=$-$;$>$#$u#,$'$j#& & & & & & & & & & & + + + + + + + + y y y y ",
"                . . . . + + + + + + + + )$)$!$~${$l#u#u#]$#$^$/$($_$:$O#u#<$[$}$|$& & & & & & & & & & & & & & & & & & &         ",
"                . . . . + + + + + + + + )$)$)$1$2$3$4$5$[$O#R#u#<$6$J#7$8$9$0$y@& & & & & & & & & & & & & & & & & & & &         ",
"                . . . . + + + + + + + + )$)$)$)$+ B+a$b$c$d$5$e$f$f$g$h$& i$& & & & & & & & & & & & & & & & & & & & & &         ",
"                . . . . + + + + + + + + )$)$)$)$+ + + + & & & & & & & & & & & & & & & & & & & & & & & & & & & & & & & &         "};
